<svg width="77" height="72" viewBox="0 0 77 72" fill="none" xmlns="http://www.w3.org/2000/svg">
<path d="M0 28C0 12.536 12.536 0 28 0H48.0678C63.5318 0 76.0678 12.536 76.0678 28V44C76.0678 59.464 63.5318 72 48.0678 72H28C12.536 72 0 59.464 0 44V28Z" fill="url(#paint0_linear)"/>
<path d="M58 21L76 43V72H40L19 49.5L58 26.5V21Z" fill="#0D111D" fill-opacity="0.15"/>
<path d="M49.9999 21.0001L53.9999 28.5001H47.9999L43.9999 21.0001H39.9999L43.9999 28.5001H37.9999L33.9999 21.0001H29.9999L33.9999 28.5001H27.9999L23.9999 21.0001H21.9999C19.7999 21.0001 18.0199 22.6876 18.0199 24.7501L17.9999 47.2501C17.9999 49.3126 19.7999 51.0001 21.9999 51.0001H53.9999C56.1999 51.0001 57.9999 49.3126 57.9999 47.2501V21.0001H49.9999Z" fill="white"/>
<defs>
<linearGradient id="paint0_linear" x1="38.0339" y1="0" x2="38.0339" y2="72" gradientUnits="userSpaceOnUse">
<stop stop-color="#D591FF"/>
<stop offset="1" stop-color="#800EB6"/>
</linearGradient>
</defs>
</svg>
