<svg width="32" height="32" viewBox="0 0 32 32" fill="none" xmlns="http://www.w3.org/2000/svg">
<path fill-rule="evenodd" clip-rule="evenodd" d="M17.3734 6.95636C17.8811 6.44868 17.8811 5.62556 17.3734 5.11788C16.8657 4.6102 16.0426 4.6102 15.5349 5.11788L6.20586 14.4469C6.19201 14.4606 6.17847 14.4747 6.16524 14.489C5.95142 14.7207 5.8208 15.0303 5.8208 15.3704C5.8208 15.543 5.85442 15.7077 5.91547 15.8584C5.97893 16.0153 6.07429 16.1624 6.20156 16.2897L15.5349 25.623C16.0426 26.1307 16.8657 26.1307 17.3734 25.623C17.8811 25.1153 17.8811 24.2922 17.3734 23.7845L10.2593 16.6704H25.7875C26.5054 16.6704 27.0875 16.0884 27.0875 15.3704C27.0875 14.6525 26.5054 14.0704 25.7875 14.0704H10.2593L17.3734 6.95636Z" fill="white"/>
</svg>
