<?xml version="1.0" encoding="utf-8"?>
<!-- Generator: Adobe Illustrator 21.1.0, SVG Export Plug-In . SVG Version: 6.00 Build 0)  -->
<svg version="1.1" id="Layer_1" xmlns="http://www.w3.org/2000/svg" xmlns:xlink="http://www.w3.org/1999/xlink" x="0px" y="0px"
	 viewBox="0 0 375 812" style="enable-background:new 0 0 375 812;" xml:space="preserve">
<style type="text/css">
	.st0{opacity:0.4;fill:url(#SVGID_1_);enable-background:new    ;}
	.st1{opacity:0.4;fill:url(#SVGID_2_);enable-background:new    ;}
	.st2{opacity:0.4;fill:url(#SVGID_3_);enable-background:new    ;}
	.st3{opacity:0.4;fill:url(#SVGID_4_);enable-background:new    ;}
	.st4{opacity:0.4;fill:url(#SVGID_5_);enable-background:new    ;}
	.st5{opacity:0.4;fill:url(#SVGID_6_);enable-background:new    ;}
	.st6{opacity:0.4;fill:url(#SVGID_7_);enable-background:new    ;}
	.st7{opacity:0.4;fill:url(#SVGID_8_);enable-background:new    ;}
	.st8{opacity:0.4;fill:url(#SVGID_9_);enable-background:new    ;}
	.st9{opacity:0.4;fill:url(#SVGID_10_);enable-background:new    ;}
	.st10{opacity:0.4;fill:url(#SVGID_11_);enable-background:new    ;}
	.st11{opacity:0.4;fill:url(#SVGID_12_);enable-background:new    ;}
	.st12{opacity:0.4;fill:url(#SVGID_13_);enable-background:new    ;}
	.st13{opacity:0.4;fill:url(#SVGID_14_);enable-background:new    ;}
	.st14{opacity:0.4;fill:url(#SVGID_15_);enable-background:new    ;}
	.st15{opacity:0.4;fill:url(#SVGID_16_);enable-background:new    ;}
	.st16{opacity:0.4;fill:url(#SVGID_17_);enable-background:new    ;}
	.st17{opacity:0.4;fill:url(#SVGID_18_);enable-background:new    ;}
	.st18{opacity:0.4;fill:url(#SVGID_19_);enable-background:new    ;}
	.st19{opacity:0.4;fill:url(#SVGID_20_);enable-background:new    ;}
	.st20{opacity:0.4;fill:url(#SVGID_21_);enable-background:new    ;}
	.st21{opacity:0.4;fill:url(#SVGID_22_);enable-background:new    ;}
	.st22{opacity:0.4;fill:url(#SVGID_23_);enable-background:new    ;}
	.st23{opacity:0.4;fill:url(#SVGID_24_);enable-background:new    ;}
	.st24{opacity:0.4;fill:url(#SVGID_25_);enable-background:new    ;}
	.st25{opacity:0.4;fill:url(#SVGID_26_);enable-background:new    ;}
	.st26{opacity:0.4;fill:url(#SVGID_27_);enable-background:new    ;}
	.st27{opacity:0.4;fill:url(#SVGID_28_);enable-background:new    ;}
	.st28{opacity:0.4;fill:url(#SVGID_29_);enable-background:new    ;}
	.st29{opacity:0.4;fill:url(#SVGID_30_);enable-background:new    ;}
	.st30{opacity:0.4;fill:url(#SVGID_31_);enable-background:new    ;}
	.st31{opacity:0.4;fill:url(#SVGID_32_);enable-background:new    ;}
	.st32{opacity:0.4;fill:url(#SVGID_33_);enable-background:new    ;}
	.st33{opacity:0.4;fill:url(#SVGID_34_);enable-background:new    ;}
	.st34{opacity:0.4;fill:url(#SVGID_35_);enable-background:new    ;}
	.st35{opacity:0.4;fill:url(#SVGID_36_);enable-background:new    ;}
	.st36{opacity:0.4;fill:url(#SVGID_37_);enable-background:new    ;}
	.st37{opacity:0.4;fill:url(#SVGID_38_);enable-background:new    ;}
	.st38{opacity:0.4;fill:url(#SVGID_39_);enable-background:new    ;}
	.st39{opacity:0.4;fill:url(#SVGID_40_);enable-background:new    ;}
	.st40{opacity:0.4;fill:url(#SVGID_41_);enable-background:new    ;}
	.st41{opacity:0.4;fill:url(#SVGID_42_);enable-background:new    ;}
	.st42{opacity:0.4;fill:url(#SVGID_43_);enable-background:new    ;}
	.st43{opacity:0.4;fill:url(#SVGID_44_);enable-background:new    ;}
	.st44{opacity:0.4;fill:url(#SVGID_45_);enable-background:new    ;}
	.st45{opacity:0.4;fill:url(#SVGID_46_);enable-background:new    ;}
	.st46{opacity:0.4;fill:url(#SVGID_47_);enable-background:new    ;}
	.st47{opacity:0.4;fill:url(#SVGID_48_);enable-background:new    ;}
	.st48{opacity:0.4;fill:url(#SVGID_49_);enable-background:new    ;}
	.st49{opacity:0.4;fill:url(#SVGID_50_);enable-background:new    ;}
	.st50{opacity:0.4;fill:url(#SVGID_51_);enable-background:new    ;}
	.st51{opacity:0.4;fill:url(#SVGID_52_);enable-background:new    ;}
	.st52{opacity:0.4;fill:url(#SVGID_53_);enable-background:new    ;}
	.st53{opacity:0.4;fill:url(#SVGID_54_);enable-background:new    ;}
	.st54{opacity:0.4;fill:url(#SVGID_55_);enable-background:new    ;}
	.st55{opacity:0.4;fill:url(#SVGID_56_);enable-background:new    ;}
	.st56{opacity:0.4;fill:url(#SVGID_57_);enable-background:new    ;}
	.st57{opacity:0.4;fill:url(#SVGID_58_);enable-background:new    ;}
	.st58{opacity:0.4;fill:url(#SVGID_59_);enable-background:new    ;}
	.st59{opacity:0.4;fill:url(#SVGID_60_);enable-background:new    ;}
	.st60{opacity:0.4;fill:url(#SVGID_61_);enable-background:new    ;}
</style>
<g>
	<radialGradient id="SVGID_1_" cx="85.7888" cy="406" r="242.1197" gradientUnits="userSpaceOnUse">
		<stop  offset="0" style="stop-color:#B700FF"/>
		<stop  offset="1" style="stop-color:#100047"/>
	</radialGradient>
	<polygon class="st0" points="37,0 36,0 134.6,812 135.6,812 	"/>
	<radialGradient id="SVGID_2_" cx="92.8629" cy="406" r="242.1232" gradientUnits="userSpaceOnUse">
		<stop  offset="0" style="stop-color:#B700FF"/>
		<stop  offset="1" style="stop-color:#100047"/>
	</radialGradient>
	<polygon class="st1" points="44,0 43,0 141.7,812 142.7,812 	"/>
	<radialGradient id="SVGID_3_" cx="99.9179" cy="406" r="242.1197" gradientUnits="userSpaceOnUse">
		<stop  offset="0" style="stop-color:#B700FF"/>
		<stop  offset="1" style="stop-color:#100047"/>
	</radialGradient>
	<polygon class="st2" points="51.1,0 50.1,0 148.7,812 149.8,812 	"/>
	<radialGradient id="SVGID_4_" cx="106.9128" cy="406" r="242.1197" gradientUnits="userSpaceOnUse">
		<stop  offset="0" style="stop-color:#B700FF"/>
		<stop  offset="1" style="stop-color:#100047"/>
	</radialGradient>
	<polygon class="st3" points="58.1,0 57.1,0 155.7,812 156.7,812 	"/>
	<radialGradient id="SVGID_5_" cx="64.8049" cy="406" r="242.1197" gradientUnits="userSpaceOnUse">
		<stop  offset="0" style="stop-color:#B700FF"/>
		<stop  offset="1" style="stop-color:#100047"/>
	</radialGradient>
	<polygon class="st4" points="16,0 15,0 113.6,812 114.6,812 	"/>
	<radialGradient id="SVGID_6_" cx="71.7995" cy="406" r="242.1197" gradientUnits="userSpaceOnUse">
		<stop  offset="0" style="stop-color:#B700FF"/>
		<stop  offset="1" style="stop-color:#100047"/>
	</radialGradient>
	<polygon class="st5" points="23,0 22,0 120.6,812 121.6,812 	"/>
	<radialGradient id="SVGID_7_" cx="78.7939" cy="406" r="242.1197" gradientUnits="userSpaceOnUse">
		<stop  offset="0" style="stop-color:#B700FF"/>
		<stop  offset="1" style="stop-color:#100047"/>
	</radialGradient>
	<polygon class="st6" points="30,0 29,0 127.6,812 128.6,812 	"/>
	<radialGradient id="SVGID_8_" cx="134.9711" cy="406" r="242.1232" gradientUnits="userSpaceOnUse">
		<stop  offset="0" style="stop-color:#B700FF"/>
		<stop  offset="1" style="stop-color:#100047"/>
	</radialGradient>
	<polygon class="st7" points="86.1,0 85.1,0 183.8,812 184.9,812 	"/>
	<radialGradient id="SVGID_9_" cx="113.9079" cy="406" r="242.1197" gradientUnits="userSpaceOnUse">
		<stop  offset="0" style="stop-color:#B700FF"/>
		<stop  offset="1" style="stop-color:#100047"/>
	</radialGradient>
	<polygon class="st8" points="65.1,0 64.1,0 162.7,812 163.7,812 	"/>
	<radialGradient id="SVGID_10_" cx="156.0154" cy="406" r="242.1197" gradientUnits="userSpaceOnUse">
		<stop  offset="0" style="stop-color:#B700FF"/>
		<stop  offset="1" style="stop-color:#100047"/>
	</radialGradient>
	<polygon class="st9" points="107.2,0 106.2,0 204.8,812 205.8,812 	"/>
	<radialGradient id="SVGID_11_" cx="141.966" cy="406" r="242.1233" gradientUnits="userSpaceOnUse">
		<stop  offset="0" style="stop-color:#B700FF"/>
		<stop  offset="1" style="stop-color:#100047"/>
	</radialGradient>
	<polygon class="st10" points="93.1,0 92.1,0 190.8,812 191.8,812 	"/>
	<radialGradient id="SVGID_12_" cx="149.0204" cy="406" r="242.1197" gradientUnits="userSpaceOnUse">
		<stop  offset="0" style="stop-color:#B700FF"/>
		<stop  offset="1" style="stop-color:#100047"/>
	</radialGradient>
	<polygon class="st11" points="100.2,0 99.2,0 197.8,812 198.9,812 	"/>
	<radialGradient id="SVGID_13_" cx="57.81" cy="406" r="242.1197" gradientUnits="userSpaceOnUse">
		<stop  offset="0" style="stop-color:#B700FF"/>
		<stop  offset="1" style="stop-color:#100047"/>
	</radialGradient>
	<polygon class="st12" points="9,0 8,0 106.6,812 107.6,812 	"/>
	<radialGradient id="SVGID_14_" cx="163.0103" cy="406" r="242.1197" gradientUnits="userSpaceOnUse">
		<stop  offset="0" style="stop-color:#B700FF"/>
		<stop  offset="1" style="stop-color:#100047"/>
	</radialGradient>
	<polygon class="st13" points="114.2,0 113.2,0 211.8,812 212.8,812 	"/>
	<radialGradient id="SVGID_15_" cx="127.897" cy="406" r="242.1197" gradientUnits="userSpaceOnUse">
		<stop  offset="0" style="stop-color:#B700FF"/>
		<stop  offset="1" style="stop-color:#100047"/>
	</radialGradient>
	<polygon class="st14" points="79.1,0 78.1,0 176.7,812 177.7,812 	"/>
	<radialGradient id="SVGID_16_" cx="120.9026" cy="406" r="242.1197" gradientUnits="userSpaceOnUse">
		<stop  offset="0" style="stop-color:#B700FF"/>
		<stop  offset="1" style="stop-color:#100047"/>
	</radialGradient>
	<polygon class="st15" points="72.1,0 71.1,0 169.7,812 170.7,812 	"/>
	<radialGradient id="SVGID_17_" cx="11.7129" cy="715.5968" r="57.4819" gradientUnits="userSpaceOnUse">
		<stop  offset="0" style="stop-color:#B700FF"/>
		<stop  offset="1" style="stop-color:#100047"/>
	</radialGradient>
	<polygon class="st16" points="0,619.2 0,627.5 22.4,812 23.4,812 	"/>
	<radialGradient id="SVGID_18_" cx="15.2105" cy="686.8101" r="74.6464" gradientUnits="userSpaceOnUse">
		<stop  offset="0" style="stop-color:#B700FF"/>
		<stop  offset="1" style="stop-color:#100047"/>
	</radialGradient>
	<polygon class="st17" points="0,561.6 0,569.9 29.4,812 30.4,812 	"/>
	<radialGradient id="SVGID_19_" cx="25.7024" cy="600.4551" r="126.1368" gradientUnits="userSpaceOnUse">
		<stop  offset="0" style="stop-color:#B700FF"/>
		<stop  offset="1" style="stop-color:#100047"/>
	</radialGradient>
	<polygon class="st18" points="0,388.9 0,397.2 50.4,812 51.4,812 	"/>
	<radialGradient id="SVGID_20_" cx="18.7078" cy="658.0247" r="91.8101" gradientUnits="userSpaceOnUse">
		<stop  offset="0" style="stop-color:#B700FF"/>
		<stop  offset="1" style="stop-color:#100047"/>
	</radialGradient>
	<polygon class="st19" points="0,504 0,512.3 36.4,812 37.4,812 	"/>
	<radialGradient id="SVGID_21_" cx="1.1512" cy="802.5255" r="5.6493" gradientUnits="userSpaceOnUse">
		<stop  offset="0" style="stop-color:#B700FF"/>
		<stop  offset="1" style="stop-color:#100047"/>
	</radialGradient>
	<polygon class="st20" points="0,793.1 0,801.3 1.3,812 2.3,812 	"/>
	<radialGradient id="SVGID_22_" cx="8.2156" cy="744.381" r="40.3188" gradientUnits="userSpaceOnUse">
		<stop  offset="0" style="stop-color:#B700FF"/>
		<stop  offset="1" style="stop-color:#100047"/>
	</radialGradient>
	<polygon class="st21" points="0,676.8 0,685.1 15.4,812 16.4,812 	"/>
	<radialGradient id="SVGID_23_" cx="4.7124" cy="773.2531" r="23.1037" gradientUnits="userSpaceOnUse">
		<stop  offset="0" style="stop-color:#B700FF"/>
		<stop  offset="1" style="stop-color:#100047"/>
	</radialGradient>
	<polygon class="st22" points="0,734.5 0,742.8 8.4,812 9.4,812 	"/>
	<radialGradient id="SVGID_24_" cx="43.2593" cy="455.9539" r="212.2978" gradientUnits="userSpaceOnUse">
		<stop  offset="0" style="stop-color:#B700FF"/>
		<stop  offset="1" style="stop-color:#100047"/>
	</radialGradient>
	<polygon class="st23" points="0,99.9 0,108.2 85.5,812 86.5,812 	"/>
	<radialGradient id="SVGID_25_" cx="50.755" cy="406" r="242.1233" gradientUnits="userSpaceOnUse">
		<stop  offset="0" style="stop-color:#B700FF"/>
		<stop  offset="1" style="stop-color:#100047"/>
	</radialGradient>
	<polygon class="st24" points="1.9,0 0.9,0 99.6,812 100.6,812 	"/>
	<radialGradient id="SVGID_26_" cx="29.2641" cy="571.3808" r="143.4749" gradientUnits="userSpaceOnUse">
		<stop  offset="0" style="stop-color:#B700FF"/>
		<stop  offset="1" style="stop-color:#100047"/>
	</radialGradient>
	<polygon class="st25" points="0,330.8 0,339 57.5,812 58.5,812 	"/>
	<radialGradient id="SVGID_27_" cx="39.7617" cy="484.7393" r="195.134" gradientUnits="userSpaceOnUse">
		<stop  offset="0" style="stop-color:#B700FF"/>
		<stop  offset="1" style="stop-color:#100047"/>
	</radialGradient>
	<polygon class="st26" points="0,157.5 0,165.8 78.5,812 79.5,812 	"/>
	<radialGradient id="SVGID_28_" cx="46.7566" cy="427.1678" r="229.4619" gradientUnits="userSpaceOnUse">
		<stop  offset="0" style="stop-color:#B700FF"/>
		<stop  offset="1" style="stop-color:#100047"/>
	</radialGradient>
	<polygon class="st27" points="0,42.3 0,50.6 92.5,812 93.5,812 	"/>
	<radialGradient id="SVGID_29_" cx="32.7671" cy="542.31" r="160.8067" gradientUnits="userSpaceOnUse">
		<stop  offset="0" style="stop-color:#B700FF"/>
		<stop  offset="1" style="stop-color:#100047"/>
	</radialGradient>
	<polygon class="st28" points="0,272.6 0,280.9 64.5,812 65.5,812 	"/>
	<radialGradient id="SVGID_30_" cx="36.2644" cy="513.5241" r="177.9707" gradientUnits="userSpaceOnUse">
		<stop  offset="0" style="stop-color:#B700FF"/>
		<stop  offset="1" style="stop-color:#100047"/>
	</radialGradient>
	<polygon class="st29" points="0,215 0,223.3 71.5,812 72.5,812 	"/>
	<radialGradient id="SVGID_31_" cx="22.2051" cy="629.2407" r="108.973" gradientUnits="userSpaceOnUse">
		<stop  offset="0" style="stop-color:#B700FF"/>
		<stop  offset="1" style="stop-color:#100047"/>
	</radialGradient>
	<polygon class="st30" points="0,446.5 0,454.8 43.4,812 44.4,812 	"/>
	<radialGradient id="SVGID_32_" cx="310.3984" cy="406" r="242.1232" gradientUnits="userSpaceOnUse">
		<stop  offset="0" style="stop-color:#B700FF"/>
		<stop  offset="1" style="stop-color:#100047"/>
	</radialGradient>
	<polygon class="st31" points="261.5,0 260.5,0 359.3,812 360.3,812 	"/>
	<radialGradient id="SVGID_33_" cx="170.0054" cy="406" r="242.1197" gradientUnits="userSpaceOnUse">
		<stop  offset="0" style="stop-color:#B700FF"/>
		<stop  offset="1" style="stop-color:#100047"/>
	</radialGradient>
	<polygon class="st32" points="121.2,0 120.2,0 218.8,812 219.8,812 	"/>
	<radialGradient id="SVGID_34_" cx="317.3932" cy="406" r="242.1232" gradientUnits="userSpaceOnUse">
		<stop  offset="0" style="stop-color:#B700FF"/>
		<stop  offset="1" style="stop-color:#100047"/>
	</radialGradient>
	<polygon class="st33" points="268.5,0 267.5,0 366.3,812 367.3,812 	"/>
	<radialGradient id="SVGID_35_" cx="303.3247" cy="406" r="242.1197" gradientUnits="userSpaceOnUse">
		<stop  offset="0" style="stop-color:#B700FF"/>
		<stop  offset="1" style="stop-color:#100047"/>
	</radialGradient>
	<polygon class="st34" points="254.5,0 253.5,0 352.1,812 353.2,812 	"/>
	<radialGradient id="SVGID_36_" cx="296.3296" cy="406" r="242.1197" gradientUnits="userSpaceOnUse">
		<stop  offset="0" style="stop-color:#B700FF"/>
		<stop  offset="1" style="stop-color:#100047"/>
	</radialGradient>
	<polygon class="st35" points="247.5,0 246.5,0 345.2,812 346.2,812 	"/>
	<radialGradient id="SVGID_37_" cx="282.3407" cy="406" r="242.1197" gradientUnits="userSpaceOnUse">
		<stop  offset="0" style="stop-color:#B700FF"/>
		<stop  offset="1" style="stop-color:#100047"/>
	</radialGradient>
	<polygon class="st36" points="233.5,0 232.5,0 331.2,812 332.2,812 	"/>
	<radialGradient id="SVGID_38_" cx="289.3345" cy="406" r="242.1197" gradientUnits="userSpaceOnUse">
		<stop  offset="0" style="stop-color:#B700FF"/>
		<stop  offset="1" style="stop-color:#100047"/>
	</radialGradient>
	<polygon class="st37" points="240.5,0 239.5,0 338.2,812 339.2,812 	"/>
	<radialGradient id="SVGID_39_" cx="335.3004" cy="326.7504" r="194.8298" gradientUnits="userSpaceOnUse">
		<stop  offset="0" style="stop-color:#B700FF"/>
		<stop  offset="1" style="stop-color:#100047"/>
	</radialGradient>
	<polygon class="st38" points="296.6,0 295.6,0 375,653.5 375,645.2 	"/>
	<radialGradient id="SVGID_40_" cx="342.3101" cy="268.7892" r="160.2719" gradientUnits="userSpaceOnUse">
		<stop  offset="0" style="stop-color:#B700FF"/>
		<stop  offset="1" style="stop-color:#100047"/>
	</radialGradient>
	<polygon class="st39" points="310.6,0 309.6,0 375,537.6 375,529.3 	"/>
	<radialGradient id="SVGID_41_" cx="345.8624" cy="239.819" r="142.9957" gradientUnits="userSpaceOnUse">
		<stop  offset="0" style="stop-color:#B700FF"/>
		<stop  offset="1" style="stop-color:#100047"/>
	</radialGradient>
	<polygon class="st40" points="317.7,0 316.7,0 375,479.6 375,471.4 	"/>
	<radialGradient id="SVGID_42_" cx="349.3599" cy="211.0344" r="125.8324" gradientUnits="userSpaceOnUse">
		<stop  offset="0" style="stop-color:#B700FF"/>
		<stop  offset="1" style="stop-color:#100047"/>
	</radialGradient>
	<polygon class="st41" points="324.7,0 323.7,0 375,422.1 375,413.8 	"/>
	<radialGradient id="SVGID_43_" cx="328.3058" cy="384.3201" r="229.1566" gradientUnits="userSpaceOnUse">
		<stop  offset="0" style="stop-color:#B700FF"/>
		<stop  offset="1" style="stop-color:#100047"/>
	</radialGradient>
	<polygon class="st42" points="282.6,0 281.6,0 375,768.6 375,760.4 	"/>
	<radialGradient id="SVGID_44_" cx="338.7979" cy="297.9635" r="177.6652" gradientUnits="userSpaceOnUse">
		<stop  offset="0" style="stop-color:#B700FF"/>
		<stop  offset="1" style="stop-color:#100047"/>
	</radialGradient>
	<polygon class="st43" points="303.6,0 302.6,0 375,595.9 375,587.6 	"/>
	<radialGradient id="SVGID_45_" cx="331.8029" cy="355.5339" r="211.9924" gradientUnits="userSpaceOnUse">
		<stop  offset="0" style="stop-color:#B700FF"/>
		<stop  offset="1" style="stop-color:#100047"/>
	</radialGradient>
	<polygon class="st44" points="289.6,0 288.6,0 375,711.1 375,702.8 	"/>
	<radialGradient id="SVGID_46_" cx="275.3456" cy="406" r="242.1197" gradientUnits="userSpaceOnUse">
		<stop  offset="0" style="stop-color:#B700FF"/>
		<stop  offset="1" style="stop-color:#100047"/>
	</radialGradient>
	<polygon class="st45" points="226.5,0 225.5,0 324.2,812 325.2,812 	"/>
	<radialGradient id="SVGID_47_" cx="324.4487" cy="406" r="242.1197" gradientUnits="userSpaceOnUse">
		<stop  offset="0" style="stop-color:#B700FF"/>
		<stop  offset="1" style="stop-color:#100047"/>
	</radialGradient>
	<polygon class="st46" points="275.6,0 274.6,0 373.3,812 374.3,812 	"/>
	<radialGradient id="SVGID_48_" cx="205.1187" cy="406" r="242.1197" gradientUnits="userSpaceOnUse">
		<stop  offset="0" style="stop-color:#B700FF"/>
		<stop  offset="1" style="stop-color:#100047"/>
	</radialGradient>
	<polygon class="st47" points="156.3,0 155.3,0 253.9,812 255,812 	"/>
	<radialGradient id="SVGID_49_" cx="212.1136" cy="406" r="242.1197" gradientUnits="userSpaceOnUse">
		<stop  offset="0" style="stop-color:#B700FF"/>
		<stop  offset="1" style="stop-color:#100047"/>
	</radialGradient>
	<polygon class="st48" points="163.3,0 162.3,0 260.9,812 261.9,812 	"/>
	<radialGradient id="SVGID_50_" cx="198.1235" cy="406" r="242.1197" gradientUnits="userSpaceOnUse">
		<stop  offset="0" style="stop-color:#B700FF"/>
		<stop  offset="1" style="stop-color:#100047"/>
	</radialGradient>
	<polygon class="st49" points="149.3,0 148.3,0 246.9,812 248,812 	"/>
	<radialGradient id="SVGID_51_" cx="219.1077" cy="406" r="242.1197" gradientUnits="userSpaceOnUse">
		<stop  offset="0" style="stop-color:#B700FF"/>
		<stop  offset="1" style="stop-color:#100047"/>
	</radialGradient>
	<polygon class="st50" points="170.3,0 169.3,0 267.9,812 268.9,812 	"/>
	<radialGradient id="SVGID_52_" cx="176.9997" cy="406" r="242.1197" gradientUnits="userSpaceOnUse">
		<stop  offset="0" style="stop-color:#B700FF"/>
		<stop  offset="1" style="stop-color:#100047"/>
	</radialGradient>
	<polygon class="st51" points="128.2,0 127.2,0 225.8,812 226.8,812 	"/>
	<radialGradient id="SVGID_53_" cx="268.29" cy="406" r="242.1232" gradientUnits="userSpaceOnUse">
		<stop  offset="0" style="stop-color:#B700FF"/>
		<stop  offset="1" style="stop-color:#100047"/>
	</radialGradient>
	<polygon class="st52" points="219.4,0 218.4,0 317.2,812 318.2,812 	"/>
	<radialGradient id="SVGID_54_" cx="184.0738" cy="406" r="242.1232" gradientUnits="userSpaceOnUse">
		<stop  offset="0" style="stop-color:#B700FF"/>
		<stop  offset="1" style="stop-color:#100047"/>
	</radialGradient>
	<polygon class="st53" points="135.2,0 134.2,0 232.9,812 234,812 	"/>
	<radialGradient id="SVGID_55_" cx="191.1294" cy="406" r="242.1197" gradientUnits="userSpaceOnUse">
		<stop  offset="0" style="stop-color:#B700FF"/>
		<stop  offset="1" style="stop-color:#100047"/>
	</radialGradient>
	<polygon class="st54" points="142.3,0 141.3,0 240,812 241,812 	"/>
	<radialGradient id="SVGID_56_" cx="247.2265" cy="406" r="242.1197" gradientUnits="userSpaceOnUse">
		<stop  offset="0" style="stop-color:#B700FF"/>
		<stop  offset="1" style="stop-color:#100047"/>
	</radialGradient>
	<polygon class="st55" points="198.4,0 197.4,0 296.1,812 297.1,812 	"/>
	<radialGradient id="SVGID_57_" cx="226.1822" cy="406" r="242.1232" gradientUnits="userSpaceOnUse">
		<stop  offset="0" style="stop-color:#B700FF"/>
		<stop  offset="1" style="stop-color:#100047"/>
	</radialGradient>
	<polygon class="st56" points="177.3,0 176.3,0 275.1,812 276.1,812 	"/>
	<radialGradient id="SVGID_58_" cx="261.2163" cy="406" r="242.1197" gradientUnits="userSpaceOnUse">
		<stop  offset="0" style="stop-color:#B700FF"/>
		<stop  offset="1" style="stop-color:#100047"/>
	</radialGradient>
	<polygon class="st57" points="212.4,0 211.4,0 310,812 311,812 	"/>
	<radialGradient id="SVGID_59_" cx="254.2214" cy="406" r="242.1197" gradientUnits="userSpaceOnUse">
		<stop  offset="0" style="stop-color:#B700FF"/>
		<stop  offset="1" style="stop-color:#100047"/>
	</radialGradient>
	<polygon class="st58" points="205.4,0 204.4,0 303,812 304.1,812 	"/>
	<radialGradient id="SVGID_60_" cx="233.2376" cy="406" r="242.1197" gradientUnits="userSpaceOnUse">
		<stop  offset="0" style="stop-color:#B700FF"/>
		<stop  offset="1" style="stop-color:#100047"/>
	</radialGradient>
	<polygon class="st59" points="184.4,0 183.4,0 282.1,812 283.1,812 	"/>
	<radialGradient id="SVGID_61_" cx="240.2317" cy="406" r="242.1197" gradientUnits="userSpaceOnUse">
		<stop  offset="0" style="stop-color:#B700FF"/>
		<stop  offset="1" style="stop-color:#100047"/>
	</radialGradient>
	<polygon class="st60" points="191.4,0 190.4,0 289.1,812 290.1,812 	"/>
</g>
</svg>
