<svg width="77" height="72" viewBox="0 0 77 72" fill="none" xmlns="http://www.w3.org/2000/svg">
<path d="M0 28C0 12.536 12.536 0 28 0H48.0678C63.5318 0 76.0678 12.536 76.0678 28V44C76.0678 59.464 63.5318 72 48.0678 72H28C12.536 72 0 59.464 0 44V28Z" fill="url(#paint0_linear)"/>
<path d="M56 20L76 42V72H40L19 50.5H56V20Z" fill="#0D111D" fill-opacity="0.15"/>
<path d="M58 22.1024C58 20.9416 57.0875 20 55.9625 20H20.0375C18.9125 20 18 20.9416 18 22.1024V49.8976C18 51.0584 18.9125 52 20.0375 52H55.95C57.075 52 57.9875 51.0584 57.9875 49.8976V22.1024H58ZM34.875 31.2471C34.875 30.873 35.0875 30.5248 35.4125 30.3313C35.725 30.1378 36.125 30.1378 36.45 30.3313L41.4875 33.3366C41.8 33.53 42 33.8783 42 34.2523C42 34.6264 41.8125 34.9746 41.4875 35.1681L36.45 38.1733C36.2875 38.2636 36.1125 38.3152 35.9375 38.3152C35.7625 38.3152 35.5625 38.2636 35.4 38.1733C35.0875 37.9798 34.8625 37.6316 34.8625 37.2576L34.875 31.2471ZM53.825 47.9371H30.1125V48.079C30.1125 48.6594 29.65 49.1366 29.0875 49.1366C28.525 49.1366 28.0625 48.6594 28.0625 48.079V47.9371H22.125C21.5625 47.9371 21.1 47.4599 21.1 46.8795C21.1 46.2991 21.5625 45.8218 22.125 45.8218H28.1125C28.1125 45.2414 28.575 44.7642 29.1375 44.7642C29.7 44.7642 30.1625 45.2414 30.1625 45.8218H53.8375C54.4 45.8218 54.8625 46.2991 54.8625 46.8795C54.85 47.4599 54.3875 47.9371 53.825 47.9371Z" fill="white"/>
<defs>
<linearGradient id="paint0_linear" x1="38.0339" y1="0" x2="38.0339" y2="72" gradientUnits="userSpaceOnUse">
<stop stop-color="#FFDD86"/>
<stop offset="1" stop-color="#B6910E"/>
</linearGradient>
</defs>
</svg>
