<svg width="77" height="72" viewBox="0 0 77 72" fill="none" xmlns="http://www.w3.org/2000/svg">
<path d="M0 28C0 12.536 12.536 0 28 0H48.0678C63.5318 0 76.0678 12.536 76.0678 28V44C76.0678 59.464 63.5318 72 48.0678 72H28C12.536 72 0 59.464 0 44V28Z" fill="url(#paint0_linear)"/>
<path d="M53 17.5L76 42.5V72H43.5L21 48C21 48 17 37.5 17.5 31C18 24.5 26 16.5 26 16.5L39 29L53 17.5Z" fill="#0D111D" fill-opacity="0.15"/>
<path d="M26.2102 48.9095C21.6611 45.2392 19.058 39.7657 19.058 33.883C19.058 28.0003 21.6611 22.5269 26.2102 18.8566C26.8673 18.3195 26.981 17.3475 26.4503 16.6825C26.1976 16.3628 25.8311 16.1582 25.4268 16.1071C25.0224 16.0559 24.618 16.171 24.3021 16.4396C19.0327 20.6981 16 27.054 16 33.883C16 40.7121 19.0327 47.0679 24.3021 51.3265C24.5801 51.5567 24.9213 51.659 25.2499 51.659C25.7048 51.659 26.147 51.4544 26.4503 51.0835C26.981 50.4057 26.8673 49.4338 26.2102 48.9095Z" fill="white"/>
<path d="M51.6979 16.4396C51.0408 15.9024 50.0804 16.0175 49.5497 16.6825C49.019 17.3475 49.1327 18.3195 49.7898 18.8566C54.3389 22.5269 56.942 28.0003 56.942 33.883C56.942 39.7657 54.3389 45.2392 49.7898 48.9095C49.4739 49.1652 49.2717 49.5361 49.2211 49.9453C49.1706 50.3546 49.2843 50.7638 49.5497 51.0835C49.853 51.4672 50.2952 51.659 50.7501 51.659C51.0787 51.659 51.4199 51.5439 51.6979 51.3265C56.9799 47.0679 60 40.7121 60 33.883C60 27.054 56.9673 20.6981 51.6979 16.4396Z" fill="white"/>
<path d="M25.8438 33.883C25.8438 37.6556 27.5244 41.1724 30.4561 43.5255C30.772 43.7813 30.9489 44.1266 30.9994 44.5358C31.05 44.945 30.9362 45.3543 30.6835 45.674C30.3802 46.0576 29.938 46.2623 29.4831 46.2623C29.1545 46.2623 28.8133 46.1599 28.5353 45.9298C24.8708 42.9884 22.7731 38.5892 22.7731 33.8702C22.7731 29.1513 24.8708 24.7521 28.5353 21.8107C28.8512 21.5549 29.2556 21.4399 29.66 21.491C30.0643 21.5422 30.4308 21.7468 30.6835 22.0665C31.2142 22.7315 31.1005 23.7162 30.4434 24.2405C27.5244 26.5936 25.8438 30.1104 25.8438 33.883Z" fill="white"/>
<path d="M47.4394 21.8235C46.7823 21.2992 45.8219 21.4015 45.2912 22.0665C45.0385 22.3862 44.9248 22.7954 44.9753 23.2047C45.0258 23.6139 45.228 23.9848 45.5439 24.2405C48.4756 26.5936 50.1436 30.1104 50.1436 33.883C50.1436 37.6556 48.463 41.1724 45.5439 43.5255C44.8868 44.0498 44.7731 45.0346 45.3038 45.6996C45.5566 46.0193 45.923 46.2239 46.3274 46.275C46.3906 46.2878 46.4411 46.2878 46.5043 46.2878C46.8455 46.2878 47.174 46.1727 47.452 45.9553C51.1166 43.014 53.2142 38.6148 53.2142 33.8958C53.2142 29.1769 51.104 24.7649 47.4394 21.8235Z" fill="white"/>
<path d="M31.6312 33.8958C31.6312 30.3406 34.4871 27.4504 38 27.4504C41.5129 27.4504 44.3688 30.3406 44.3688 33.8958C44.3688 37.0034 42.1827 39.6122 39.2763 40.2133V54.6131C39.2763 55.3293 38.7076 55.9047 38 55.9047C37.2924 55.9047 36.7237 55.3293 36.7237 54.6131V40.2133C33.8173 39.6122 31.6312 37.0034 31.6312 33.8958Z" fill="white"/>
<defs>
<linearGradient id="paint0_linear" x1="38" y1="0" x2="38" y2="72" gradientUnits="userSpaceOnUse">
<stop stop-color="#FF8686"/>
<stop offset="1" stop-color="#C62828"/>
</linearGradient>
</defs>
</svg>
