<svg width="77" height="72" viewBox="0 0 77 72" fill="none" xmlns="http://www.w3.org/2000/svg">
<path d="M0 28C0 12.536 12.536 0 28 0H48.0678C63.5318 0 76.0678 12.536 76.0678 28V44C76.0678 59.464 63.5318 72 48.0678 72H28C12.536 72 0 59.464 0 44V28Z" fill="url(#paint0_linear)"/>
<path d="M47.5 22L76 51V72H38.5L17.5 50.5L29.5 22H47.5Z" fill="#0D111D" fill-opacity="0.15"/>
<path d="M58.9999 41.9681V48.335C58.9999 50.8698 56.9305 53 54.3223 53H52.1917C51.004 53 49.9999 52.0004 49.9999 50.846V39.4571V34.804C49.9999 28.3896 44.6121 23.1652 37.9999 23.1652C31.3876 23.1652 25.9999 28.4015 25.9999 34.8397V48.5492V50.8341C25.9999 51.9884 25.0938 52.9881 23.906 52.9881H21.7754C19.1672 52.9881 16.9999 50.8579 16.9999 48.3231V41.9681C16.9999 39.4452 19.1427 37.3864 21.7142 37.3745V34.8397C21.7142 26.1047 29.0244 19 37.9999 19C46.9754 19 54.2856 26.0928 54.2856 34.804V37.3745C56.9917 37.3864 58.9999 39.4452 58.9999 41.9681Z" fill="white"/>
<defs>
<linearGradient id="paint0_linear" x1="38.0339" y1="0" x2="38.0339" y2="72" gradientUnits="userSpaceOnUse">
<stop stop-color="#ADFF86"/>
<stop offset="1" stop-color="#58B60E"/>
</linearGradient>
</defs>
</svg>
