<svg width="77" height="72" viewBox="0 0 77 72" fill="none" xmlns="http://www.w3.org/2000/svg">
<path d="M0 28C0 12.536 12.536 0 28 0H48.0678C63.5318 0 76.0678 12.536 76.0678 28V44C76.0678 59.464 63.5318 72 48.0678 72H28C12.536 72 0 59.464 0 44V28Z" fill="url(#paint0_linear)"/>
<path d="M47 17L55.5 26H57.5L76 46V72H38L21 55V53.5L19 51H57V27H37.5L29.5 18H32.5L39 25H44.5L42 22.5L47 17Z" fill="#0D111D" fill-opacity="0.15"/>
<path d="M43.65 22.4674C43.4 22.7548 43.0375 22.9173 42.6625 22.9173C41.525 22.9173 40.925 21.58 41.6625 20.7176L45.3625 16.4558C45.8375 15.9308 46.6625 15.8308 47.2375 16.3058C47.7625 16.7932 47.8625 17.6056 47.3875 18.1805L43.65 22.4674Z" fill="white"/>
<path d="M32.95 22.4673C33.2 22.7548 33.5625 22.9172 33.9375 22.9172C35.075 22.9172 35.675 21.5799 34.9375 20.7176L31.2375 16.4682C30.7625 15.9433 29.9375 15.8433 29.3625 16.3182C28.8375 16.8056 28.7375 17.618 29.2125 18.1929L32.95 22.4673Z" fill="white"/>
<path d="M24.7625 53.2504H21.35C21.025 53.2504 20.75 53.5254 20.75 53.8503C20.75 55.0376 21.7 56 22.8875 56H23.225C24.4 56 25.3625 55.0376 25.3625 53.8503C25.3625 53.5254 25.0875 53.2504 24.7625 53.2504Z" fill="white"/>
<path d="M54.2 53.2504H50.8C50.475 53.2504 50.2 53.5254 50.2 53.8503C50.2 55.0376 51.15 56 52.3375 56H52.675C53.85 56 54.8125 55.0376 54.8125 53.8503C54.8 53.5254 54.5375 53.2504 54.2 53.2504Z" fill="white"/>
<path d="M55.025 24.8545H20.975C19.3375 24.8545 18 26.2043 18 27.8415V49.3009C18 50.9382 19.3375 52.288 20.975 52.288H55.025C56.65 52.288 58 50.9382 58 49.3009V27.8415C58 26.2043 56.6625 24.8545 55.025 24.8545ZM53.675 45.7764C53.675 47.0138 52.6625 48.0261 51.425 48.0261H24.575C23.3375 48.0261 22.325 47.0138 22.325 45.7764V31.366C22.325 30.1287 23.3375 29.1164 24.575 29.1164H51.4125C52.65 29.1164 53.6625 30.1287 53.6625 31.366V45.7764H53.675Z" fill="white"/>
<defs>
<linearGradient id="paint0_linear" x1="38" y1="0" x2="38" y2="72" gradientUnits="userSpaceOnUse">
<stop stop-color="#86B6FF"/>
<stop offset="1" stop-color="#0E50B6"/>
</linearGradient>
</defs>
</svg>
