<svg width="77" height="72" viewBox="0 0 77 72" fill="none" xmlns="http://www.w3.org/2000/svg">
<path d="M0 28C0 12.536 12.536 0 28 0H48.0678C63.5318 0 76.0678 12.536 76.0678 28V44C76.0678 59.464 63.5318 72 48.0678 72H28C12.536 72 0 59.464 0 44V28Z" fill="url(#paint0_linear)"/>
<path d="M76 72V40L57.5 19V45.5H17.5L41 72H76Z" fill="#0D111D" fill-opacity="0.15"/>
<path d="M41.4375 33.6625C42.8125 32.2875 44.7375 31.7375 46.525 32.0125C46.25 30.9125 45.8375 29.8125 44.875 28.9875C44.05 28.1625 42.95 27.6125 41.85 27.3375C42.125 29.125 41.4375 31.05 40.0625 32.2875C38.9625 33.3875 37.3125 34.075 35.6625 34.075C35.3875 34.075 35.1125 34.075 34.975 34.075C35.25 35.175 35.8 36.275 36.625 37.1C37.45 37.925 38.55 38.475 39.65 38.75C39.5125 36.9625 40.2 35.0375 41.4375 33.6625Z" fill="white"/>
<path d="M38.4125 30.6375C39.2375 29.8125 39.65 28.575 39.375 27.3375C38.275 27.6125 37.3125 28.1625 36.625 28.85C35.8 29.675 35.3875 30.5 35.1125 31.6C36.35 31.875 37.5875 31.6 38.4125 30.6375Z" fill="white"/>
<path d="M32.775 49.3375V50.85H30.1625C29.475 50.85 28.925 51.4 28.925 52.0875C28.925 52.775 29.475 53.325 30.1625 53.325H45.8375C46.525 53.325 47.075 52.775 47.075 52.0875C47.075 51.4 46.525 50.85 45.8375 50.85H43.225V49.3375C43.225 48.925 42.95 48.65 42.5375 48.65H33.325C33.05 48.7875 32.775 49.0625 32.775 49.3375Z" fill="white"/>
<path d="M43.225 35.45C42.4 36.275 41.9875 37.5125 42.2625 38.75C43.3625 38.475 44.325 37.925 45.0125 37.2375C45.8375 36.4125 46.3875 35.45 46.525 34.4875C45.2875 34.2125 44.05 34.4875 43.225 35.45Z" fill="white"/>
<path d="M56.0125 18.8125H19.9875C18.475 18.8125 17.375 19.9125 17.375 21.2875V44.525C17.375 45.9 18.475 47 19.9875 47H56.0125C57.3875 47 58.625 45.9 58.625 44.525V21.2875C58.625 19.9125 57.525 18.8125 56.0125 18.8125ZM23.0125 28.4375C23.0125 27.75 23.5625 27.2 24.25 27.2H27.1375C27.825 27.2 28.375 27.75 28.375 28.4375C28.375 29.125 27.825 29.675 27.1375 29.675H24.25C23.5625 29.5375 23.0125 28.9875 23.0125 28.4375ZM28.2375 37.1C28.2375 37.7875 27.6875 38.3375 27 38.3375H24.25C23.5625 38.3375 23.0125 37.7875 23.0125 37.1C23.0125 36.4125 23.5625 35.8625 24.25 35.8625H27.1375C27.6875 35.8625 28.2375 36.4125 28.2375 37.1ZM29.8875 32.7C29.8875 33.3875 29.3375 33.9375 28.65 33.9375H25.9C25.2125 33.9375 24.6625 33.3875 24.6625 32.7C24.6625 32.0125 25.2125 31.4625 25.9 31.4625H28.7875C29.3375 31.6 29.8875 32.0125 29.8875 32.7ZM46.6625 38.75C45.15 40.2625 43.0875 41.0875 40.75 41.0875C37.5875 41.0875 34.5625 39.3 33.05 36.1375C33.05 36.1375 33.05 36 32.9125 36C31.675 32.8375 32.5 29.4 34.8375 27.2C36.35 25.6875 38.4125 24.8625 40.75 24.8625C42.95 24.8625 45.0125 25.6875 46.6625 27.2C49.9625 30.5 49.9625 35.5875 46.6625 38.75Z" fill="white"/>
<defs>
<linearGradient id="paint0_linear" x1="38" y1="0" x2="38" y2="72" gradientUnits="userSpaceOnUse">
<stop stop-color="#FFC786"/>
<stop offset="1" stop-color="#B65E0E"/>
</linearGradient>
</defs>
</svg>
