<svg width="20" height="20" viewBox="0 0 20 20" fill="none" xmlns="http://www.w3.org/2000/svg">
<path fill-rule="evenodd" clip-rule="evenodd" d="M0.25 10C0.25 4.61522 4.61522 0.25 10 0.25C15.3822 0.256268 19.7437 4.61782 19.75 10C19.75 15.3848 15.3848 19.75 10 19.75C4.61522 19.75 0.25 15.3848 0.25 10ZM10.0666 14.4598L15.6282 6.9125C15.8162 6.67979 15.8611 6.36258 15.7451 6.08682C15.6291 5.81105 15.3709 5.62135 15.0731 5.59303C14.7753 5.56471 14.486 5.70235 14.3201 5.95131L9.26063 12.8178L5.94888 10.1682C5.59842 9.88773 5.08696 9.94448 4.8065 10.2949C4.52604 10.6454 4.58279 11.1569 4.93325 11.4373L8.90475 14.6126C9.07837 14.7483 9.29923 14.8085 9.51772 14.7798C9.73621 14.7511 9.93399 14.6358 10.0666 14.4598Z" fill="#E34398"/>
</svg>
