<svg width="145" height="145" viewBox="0 0 145 145" fill="none" xmlns="http://www.w3.org/2000/svg">
<circle cx="73" cy="73" r="55" fill="white" fill-opacity="0.1"/>
<path d="M75.5152 40.4555H37.9355V29.5539C37.9355 25.9201 40.8018 23 44.3687 23H69.1458C72.7126 23 75.5789 25.9201 75.5789 29.5539V40.4555H75.5152Z" fill="url(#paint0_linear)"/>
<path d="M65.8972 40.4555H28.2539V29.5539C28.2539 25.9201 31.1201 23 34.687 23H59.4641C63.031 23 65.8972 25.9201 65.8972 29.5539V40.4555Z" fill="url(#paint1_linear)"/>
<path d="M55.6433 35.4589V29.5539C55.6433 25.9201 52.7771 23 49.2102 23H24.4331C20.8662 23 18 25.9201 18 29.5539V100.284C18 105.411 22.0764 109.629 27.172 109.629H118.828C123.86 109.629 128 105.476 128 100.284V47.5934C128 42.4671 123.924 38.2492 118.828 38.2492H58.4459C56.8535 38.3141 55.6433 37.0163 55.6433 35.4589Z" fill="url(#paint2_linear)"/>
<path d="M101.503 51.0971H99.2735C97.9996 51.0971 96.9805 50.0588 96.9805 48.761V46.4899C96.9805 45.1921 97.9996 44.1538 99.2735 44.1538H101.503C102.777 44.1538 103.796 45.1921 103.796 46.4899V48.761C103.796 50.0588 102.777 51.0971 101.503 51.0971Z" fill="#B9DD39"/>
<path d="M110.165 51.0971H107.936C106.662 51.0971 105.643 50.0588 105.643 48.761V46.4899C105.643 45.1921 106.662 44.1538 107.936 44.1538H110.165C111.439 44.1538 112.458 45.1921 112.458 46.4899V48.761C112.458 50.0588 111.439 51.0971 110.165 51.0971Z" fill="#B9DD39"/>
<path d="M118.827 51.0971H116.598C115.324 51.0971 114.305 50.0588 114.305 48.761V46.4899C114.305 45.1921 115.324 44.1538 116.598 44.1538H118.827C120.101 44.1538 121.12 45.1921 121.12 46.4899V48.761C121.12 50.0588 120.101 51.0971 118.827 51.0971Z" fill="#B9DD39"/>
<path opacity="0.1" d="M18 89.9668V100.284C18 105.411 22.0764 109.629 27.172 109.629H118.828C123.86 109.629 128 105.476 128 100.284V89.9668H18Z" fill="black"/>
<path opacity="0.1" d="M127.81 102.166L87.555 58.7897C86.5359 57.3622 84.9435 57.1675 83.1601 57.1675H64.1155C61.1218 57.1675 60.5006 58.9844 60.5006 62.0343L60.5 80.3686H53C47.586 80.3686 46.0696 85.2281 48.9996 89.9002L62.0012 109.564H118.829C123.287 109.629 126.982 106.384 127.81 102.166Z" fill="black"/>
<path d="M93.5381 79.024H87.5852V60.5621C87.5852 57.8674 85.3231 55.6313 82.4657 55.6313H64.7259C61.928 55.6313 59.6063 57.8101 59.6063 60.5621V79.024H52.4628C47.4028 79.024 44.3073 84.4134 46.9861 88.5415L67.5238 120.076C70.024 123.974 75.9174 123.974 78.4177 120.076L98.9553 88.5415C101.694 84.4134 98.5981 79.024 93.5381 79.024Z" fill="url(#paint3_linear)"/>
<path d="M93.5376 79.024H87.5847V60.5621C87.5847 57.8674 85.3226 55.6313 82.4652 55.6313H73V123C75.0835 123 77.1671 122.025 78.4767 120.076L99.0144 88.5415C101.693 84.4134 98.5976 79.024 93.5376 79.024Z" fill="url(#paint4_linear)"/>
<defs>
<linearGradient id="paint0_linear" x1="56.7197" y1="26.6153" x2="56.7197" y2="40.4523" gradientUnits="userSpaceOnUse">
<stop stop-color="#FF9100"/>
<stop offset="1" stop-color="#E63950"/>
</linearGradient>
<linearGradient id="paint1_linear" x1="47.0517" y1="26.6153" x2="47.0517" y2="40.4523" gradientUnits="userSpaceOnUse">
<stop stop-color="#FDBF00"/>
<stop offset="1" stop-color="#FF9100"/>
</linearGradient>
<linearGradient id="paint2_linear" x1="22.4679" y1="22.2945" x2="116.95" y2="115.36" gradientUnits="userSpaceOnUse">
<stop stop-color="#F54997"/>
<stop offset="0.1751" stop-color="#C437B3"/>
<stop offset="0.3717" stop-color="#9426CE"/>
<stop offset="0.5589" stop-color="#6E18E3"/>
<stop offset="0.7312" stop-color="#530EF2"/>
<stop offset="0.8836" stop-color="#4308FC"/>
<stop offset="1" stop-color="#3D06FF"/>
</linearGradient>
<linearGradient id="paint3_linear" x1="63.8095" y1="76.1246" x2="112.221" y2="126.389" gradientUnits="userSpaceOnUse">
<stop stop-color="#B9DD39"/>
<stop offset="1" stop-color="#0B799D"/>
</linearGradient>
<linearGradient id="paint4_linear" x1="71.5735" y1="91.4738" x2="19.6751" y2="137.661" gradientUnits="userSpaceOnUse">
<stop stop-color="#0B799D" stop-opacity="0"/>
<stop offset="0.3645" stop-color="#096380" stop-opacity="0.365"/>
<stop offset="0.76" stop-color="#084F67" stop-opacity="0.76"/>
<stop offset="1" stop-color="#07485E"/>
</linearGradient>
</defs>
</svg>
