<svg width="145" height="145" viewBox="0 0 145 145" fill="none" xmlns="http://www.w3.org/2000/svg">
<circle cx="72.5" cy="72.5" r="72.5" fill="white" fill-opacity="0.05"/>
<path d="M75.2883 46.9644H41.125V38.2431C41.125 35.3361 43.7307 33 46.9733 33H69.4979C72.7405 33 75.3462 35.3361 75.3462 38.2431V46.9644H75.2883Z" fill="url(#paint0_linear_7992_46294)"/>
<path d="M66.5454 46.9644H32.3242V38.2431C32.3242 35.3361 34.9299 33 38.1725 33H60.6971C63.9397 33 66.5454 35.3361 66.5454 38.2431V46.9644Z" fill="url(#paint1_linear_7992_46294)"/>
<path d="M57.2212 42.9672V38.2431C57.2212 35.3361 54.6155 33 51.3729 33H28.8483C25.6057 33 23 35.3361 23 38.2431V94.8275C23 98.9285 26.7058 102.303 31.3382 102.303H114.662C119.236 102.303 123 98.9805 123 94.8275V52.6747C123 48.5737 119.294 45.1994 114.662 45.1994H59.769C58.3214 45.2513 57.2212 44.213 57.2212 42.9672Z" fill="url(#paint2_linear_7992_46294)"/>
<path d="M98.912 55.4779H96.8853C95.7272 55.4779 94.8008 54.6473 94.8008 53.6091V51.7922C94.8008 50.7539 95.7272 49.9233 96.8853 49.9233H98.912C100.07 49.9233 100.996 50.7539 100.996 51.7922V53.6091C100.996 54.6473 100.07 55.4779 98.912 55.4779Z" fill="#B9DD39"/>
<path d="M106.787 55.4779H104.76C103.602 55.4779 102.676 54.6473 102.676 53.6091V51.7922C102.676 50.7539 103.602 49.9233 104.76 49.9233H106.787C107.945 49.9233 108.871 50.7539 108.871 51.7922V53.6091C108.871 54.6473 107.945 55.4779 106.787 55.4779Z" fill="#B9DD39"/>
<path d="M114.662 55.4779H112.635C111.477 55.4779 110.551 54.6473 110.551 53.6091V51.7922C110.551 50.7539 111.477 49.9233 112.635 49.9233H114.662C115.82 49.9233 116.746 50.7539 116.746 51.7922V53.6091C116.746 54.6473 115.82 55.4779 114.662 55.4779Z" fill="#B9DD39"/>
<path opacity="0.1" d="M23 86.5737V94.8278C23 98.9289 26.7058 102.303 31.3382 102.303H114.662C119.236 102.303 123 98.9808 123 94.8278V86.5737H23V86.5737Z" fill="black"/>
<path opacity="0.1" d="M122.828 96.3331L86.2329 61.6318C85.3064 60.4897 83.8588 60.334 82.2375 60.334H64.9242C62.2027 60.334 61.6379 61.7875 61.6379 64.2274L61.6374 78.8948H54.8192C49.8974 78.8948 48.5189 82.7825 51.1825 86.5202L63.0021 102.251H114.664C118.717 102.303 122.075 99.7074 122.828 96.3331Z" fill="black"/>
<path d="M91.6696 77.8196H86.2578V63.0501C86.2578 60.8943 84.2014 59.1055 81.6037 59.1055H65.4766C62.9331 59.1055 60.8225 60.8484 60.8225 63.0501V77.8196H54.3284C49.7284 77.8196 46.9143 82.1311 49.3496 85.4336L68.0202 110.661C70.2931 113.78 75.6508 113.78 77.9237 110.661L96.5943 85.4336C99.0837 82.1311 96.2696 77.8196 91.6696 77.8196Z" fill="url(#paint3_linear_7992_46294)"/>
<path d="M91.6706 77.8196H86.2588V63.0501C86.2588 60.8943 84.2024 59.1055 81.6047 59.1055H73V113C74.8941 113 76.7882 112.22 77.9788 110.661L96.6494 85.4336C99.0847 82.1311 96.2706 77.8196 91.6706 77.8196Z" fill="url(#paint4_linear_7992_46294)"/>
<defs>
<linearGradient id="paint0_linear_7992_46294" x1="58.2015" y1="35.8923" x2="58.2015" y2="46.9618" gradientUnits="userSpaceOnUse">
<stop stop-color="#FF9100"/>
<stop offset="1" stop-color="#E63950"/>
</linearGradient>
<linearGradient id="paint1_linear_7992_46294" x1="49.4131" y1="35.8923" x2="49.4131" y2="46.9618" gradientUnits="userSpaceOnUse">
<stop stop-color="#FDBF00"/>
<stop offset="1" stop-color="#FF9100"/>
</linearGradient>
<linearGradient id="paint2_linear_7992_46294" x1="27.0617" y1="32.4356" x2="102.179" y2="116.515" gradientUnits="userSpaceOnUse">
<stop stop-color="#F54997"/>
<stop offset="0.1751" stop-color="#C437B3"/>
<stop offset="0.3717" stop-color="#9426CE"/>
<stop offset="0.5589" stop-color="#6E18E3"/>
<stop offset="0.7312" stop-color="#530EF2"/>
<stop offset="0.8836" stop-color="#4308FC"/>
<stop offset="1" stop-color="#3D06FF"/>
</linearGradient>
<linearGradient id="paint3_linear_7992_46294" x1="64.6436" y1="75.5001" x2="102.876" y2="120.609" gradientUnits="userSpaceOnUse">
<stop stop-color="#B9DD39"/>
<stop offset="1" stop-color="#0B799D"/>
</linearGradient>
<linearGradient id="paint4_linear_7992_46294" x1="71.7032" y1="87.7794" x2="29.9046" y2="130.051" gradientUnits="userSpaceOnUse">
<stop stop-color="#0B799D" stop-opacity="0"/>
<stop offset="0.3645" stop-color="#096380" stop-opacity="0.365"/>
<stop offset="0.76" stop-color="#084F67" stop-opacity="0.76"/>
<stop offset="1" stop-color="#07485E"/>
</linearGradient>
</defs>
</svg>
