<svg width="145" height="145" viewBox="0 0 145 145" fill="none" xmlns="http://www.w3.org/2000/svg">
<circle cx="73" cy="72" r="55" fill="white" fill-opacity="0.1"/>
<path d="M1.015 73.4721C0.377 72.836 0 71.9686 0 71.0145C0 69.1062 1.566 67.5448 3.48 67.5448H40.571C42.485 67.5448 44.051 69.1062 44.051 71.0145C44.051 72.9228 42.485 74.4841 40.571 74.4841H3.48C2.523 74.4841 1.653 74.0793 1.015 73.4721Z" fill="#13BD38"/>
<path d="M15.9213 88.3337C15.2833 87.6976 14.9062 86.8302 14.9062 85.8761C14.9062 83.9678 16.4723 82.4064 18.3863 82.4064H40.5712C42.4853 82.4064 44.0513 83.9678 44.0513 85.8761C44.0513 87.7844 42.4853 89.3457 40.5712 89.3457H18.3863C17.4293 89.3457 16.5593 88.9409 15.9213 88.3337Z" fill="#13BD38"/>
<path d="M15.9213 58.5816C15.2833 57.9455 14.9062 57.0781 14.9062 56.1239C14.9062 54.2156 16.4723 52.6543 18.3863 52.6543H40.5712C42.4853 52.6543 44.0513 54.2156 44.0513 56.1239C44.0513 58.0322 42.4853 59.5936 40.5712 59.5936H18.3863C17.4293 59.6225 16.5593 59.2177 15.9213 58.5816Z" fill="#13BD38"/>
<path d="M138.967 93.2491V48.7509C138.967 45.3391 137.633 42.1586 135.197 39.7299C132.761 37.3011 129.571 36 126.149 36H49.9081C42.8611 36 37.1191 41.7249 37.1191 48.7509V93.2491C37.1191 96.6609 38.4531 99.8414 40.8891 102.27C43.3251 104.699 46.5151 106.029 49.9371 106.029H126.178C133.225 106 138.967 100.275 138.967 93.2491Z" fill="url(#paint0_linear)"/>
<path opacity="0.25" d="M41.4406 44.1247C40.2806 42.9682 40.0776 41.1466 41.0056 39.7588C42.0786 38.1685 44.2246 37.7348 45.8196 38.8046L88.0146 66.8509L130.21 38.8046C131.805 37.7348 133.98 38.1685 135.024 39.7588C136.097 41.349 135.662 43.5175 134.067 44.5584L89.9576 73.9058C88.7976 74.6865 87.2606 74.6865 86.1006 73.9058L41.9626 44.5584C41.7596 44.4428 41.5856 44.2693 41.4406 44.1247Z" fill="black"/>
<path opacity="0.25" d="M89.9589 73.9058L134.097 44.5584C135.692 43.4886 136.127 41.349 135.054 39.7588C133.981 38.1685 131.835 37.7348 130.24 38.8046L88.0449 66.8509V74.4841C88.7119 74.4841 89.3789 74.2817 89.9589 73.9058Z" fill="black"/>
<path opacity="0.1" d="M41.4414 44.1247L95.5264 106L126.382 105.971C133.371 105.971 138.997 100.304 138.968 93.3358C138.968 93.3358 139.055 50.5147 138.91 47.6811C138.678 42.8815 135.198 39.7588 135.198 39.7588C135.198 39.7588 136.851 42.7658 134.096 44.5874C132.211 45.8017 90.1904 73.7323 90.1904 73.7323C88.8854 74.5998 87.2034 74.5998 85.8984 73.7323L41.4414 44.1247Z" fill="black"/>
<defs>
<linearGradient id="paint0_linear" x1="48.7644" y1="31.8573" x2="127.058" y2="110.384" gradientUnits="userSpaceOnUse">
<stop stop-color="#F54997"/>
<stop offset="0.1751" stop-color="#C437B3"/>
<stop offset="0.3717" stop-color="#9426CE"/>
<stop offset="0.5589" stop-color="#6E18E3"/>
<stop offset="0.7312" stop-color="#530EF2"/>
<stop offset="0.8836" stop-color="#4308FC"/>
<stop offset="1" stop-color="#3D06FF"/>
</linearGradient>
</defs>
</svg>
