<svg width="145" height="145" viewBox="0 0 145 145" fill="none" xmlns="http://www.w3.org/2000/svg">
<circle cx="72.5" cy="72.5" r="72.5" fill="white" fill-opacity="0.05"/>
<path d="M23.8114 74.4302C23.3014 73.9306 23 73.2494 23 72.5C23 71.0012 24.2518 69.775 25.7819 69.775H55.4318C56.9619 69.775 58.2137 71.0012 58.2137 72.5C58.2137 73.9988 56.9619 75.225 55.4318 75.225H25.7819C25.0168 75.225 24.3214 74.9071 23.8114 74.4302Z" fill="#13BD38"/>
<path d="M30.1727 86.1024C29.6627 85.6028 29.3613 84.9216 29.3613 84.1722C29.3613 82.6734 30.6132 81.4472 32.1432 81.4472H49.8775C51.4076 81.4472 52.6594 82.6734 52.6594 84.1722C52.6594 85.6709 51.4076 86.8972 49.8775 86.8972H32.1432C31.3782 86.8972 30.6827 86.5793 30.1727 86.1024Z" fill="#13BD38"/>
<path d="M30.1727 62.7353C29.6627 62.2358 29.3613 61.5545 29.3613 60.8051C29.3613 59.3064 30.6132 58.0801 32.1432 58.0801H49.8775C51.4076 58.0801 52.6594 59.3064 52.6594 60.8051C52.6594 62.3039 51.4076 63.5301 49.8775 63.5301H32.1432C31.3782 63.5528 30.6827 63.2349 30.1727 62.7353Z" fill="#13BD38"/>
<path d="M122.976 89.9628V55.0145C122.976 52.3348 121.91 49.8369 119.963 47.9294C118.015 46.0219 115.465 45 112.73 45H51.7839C46.1506 45 41.5605 49.4963 41.5605 55.0145V89.9628C41.5605 92.6424 42.6269 95.1404 44.5742 97.0479C46.5215 98.9554 49.0716 100 51.8071 100H112.753C118.386 99.9773 122.976 95.481 122.976 89.9628Z" fill="url(#paint0_linear_129_1122)"/>
<path opacity="0.25" d="M45.0136 51.3811C44.0863 50.4728 43.924 49.0421 44.6658 47.9521C45.5236 46.7031 47.239 46.3625 48.5141 47.2027L82.2441 69.23L115.974 47.2027C117.249 46.3625 118.988 46.7031 119.822 47.9521C120.68 49.2011 120.332 50.9042 119.057 51.7217L83.7973 74.7709C82.87 75.384 81.6413 75.384 80.7141 74.7709L45.4308 51.7217C45.2686 51.6309 45.1295 51.4946 45.0136 51.3811Z" fill="black"/>
<path opacity="0.25" d="M83.7996 74.7709L119.083 51.7217C120.358 50.8815 120.706 49.2011 119.848 47.9521C118.99 46.7031 117.275 46.3625 116 47.2027L82.2695 69.23V75.225C82.8027 75.225 83.3359 75.0661 83.7996 74.7709Z" fill="black"/>
<path opacity="0.1" d="M45.0176 51.3811L88.2523 99.9773L112.918 99.9546C118.505 99.9546 123.002 95.5037 122.979 90.031C122.979 90.031 123.049 56.3997 122.933 54.1743C122.747 50.4046 119.965 47.9521 119.965 47.9521C119.965 47.9521 121.287 50.3138 119.085 51.7444C117.578 52.6982 83.9868 74.6346 83.9868 74.6346C82.9436 75.3159 81.599 75.3159 80.5558 74.6346L45.0176 51.3811Z" fill="black"/>
<defs>
<linearGradient id="paint0_linear_129_1122" x1="50.8696" y1="41.7464" x2="112.348" y2="104.507" gradientUnits="userSpaceOnUse">
<stop stop-color="#F54997"/>
<stop offset="0.1751" stop-color="#C437B3"/>
<stop offset="0.3717" stop-color="#9426CE"/>
<stop offset="0.5589" stop-color="#6E18E3"/>
<stop offset="0.7312" stop-color="#530EF2"/>
<stop offset="0.8836" stop-color="#4308FC"/>
<stop offset="1" stop-color="#3D06FF"/>
</linearGradient>
</defs>
</svg>
