<svg width="13" height="12" viewBox="0 0 13 12" fill="none" xmlns="http://www.w3.org/2000/svg">
<path d="M7.73508 0.750083C4.76591 0.668416 2.33341 3.05425 2.33341 6.00008H1.28924C1.02674 6.00008 0.898412 6.31508 1.08508 6.49592L2.71258 8.12925C2.82925 8.24592 3.01008 8.24592 3.12674 8.12925L4.75424 6.49592C4.93508 6.31508 4.80675 6.00008 4.54425 6.00008H3.50008C3.50008 3.72508 5.35508 1.88758 7.64175 1.91675C9.81175 1.94592 11.6376 3.77175 11.6667 5.94175C11.6959 8.22258 9.85841 10.0834 7.58341 10.0834C6.64425 10.0834 5.77508 9.76258 5.08675 9.22008C4.85341 9.03925 4.52675 9.05675 4.31675 9.26675C4.07175 9.51175 4.08925 9.92592 4.36341 10.1359C5.25008 10.8359 6.36425 11.2501 7.58341 11.2501C10.5292 11.2501 12.9151 8.81758 12.8334 5.84842C12.7576 3.11258 10.4709 0.825916 7.73508 0.750083ZM7.43758 3.66675C7.19841 3.66675 7.00008 3.86508 7.00008 4.10425V6.25092C7.00008 6.45508 7.11091 6.64758 7.28591 6.75258L9.10591 7.83175C9.31591 7.95425 9.58424 7.88425 9.70675 7.68008C9.82925 7.47008 9.75924 7.20175 9.55508 7.07925L7.87508 6.08175V4.09842C7.87508 3.86508 7.67675 3.66675 7.43758 3.66675Z" fill="#13BD38"/>
</svg>
