<?xml version="1.0" encoding="utf-8"?>
<!-- Generator: Adobe Illustrator 21.1.0, SVG Export Plug-In . SVG Version: 6.00 Build 0)  -->
<svg version="1.1" id="Layer_1" xmlns="http://www.w3.org/2000/svg" xmlns:xlink="http://www.w3.org/1999/xlink" x="0px" y="0px"
	 viewBox="0 0 1875 4060" style="enable-background:new 0 0 1875 4060;" xml:space="preserve">
<style type="text/css">
	.st0{fill:url(#SVGID_1_);}
	.st1{opacity:0.85;}
	.st2{fill:url(#SVGID_2_);}
	.st3{opacity:0.5;}
	.st4{opacity:0.5;fill:url(#SVGID_3_);enable-background:new    ;}
	.st5{opacity:0.5;fill:url(#SVGID_4_);enable-background:new    ;}
	.st6{opacity:0.5;fill:url(#SVGID_5_);enable-background:new    ;}
	.st7{fill:none;}
	.st8{opacity:0.4;fill:url(#SVGID_6_);enable-background:new    ;}
	.st9{opacity:0.4;fill:url(#SVGID_7_);enable-background:new    ;}
	.st10{opacity:0.4;fill:url(#SVGID_8_);enable-background:new    ;}
	.st11{opacity:0.4;fill:url(#SVGID_9_);enable-background:new    ;}
	.st12{opacity:0.4;fill:url(#SVGID_10_);enable-background:new    ;}
	.st13{opacity:0.4;fill:url(#SVGID_11_);enable-background:new    ;}
	.st14{opacity:0.4;fill:url(#SVGID_12_);enable-background:new    ;}
	.st15{opacity:0.4;fill:url(#SVGID_13_);enable-background:new    ;}
	.st16{opacity:0.4;fill:url(#SVGID_14_);enable-background:new    ;}
	.st17{opacity:0.4;fill:url(#SVGID_15_);enable-background:new    ;}
	.st18{opacity:0.4;fill:url(#SVGID_16_);enable-background:new    ;}
	.st19{opacity:0.4;fill:url(#SVGID_17_);enable-background:new    ;}
	.st20{opacity:0.4;fill:url(#SVGID_18_);enable-background:new    ;}
	.st21{opacity:0.4;fill:url(#SVGID_19_);enable-background:new    ;}
	.st22{opacity:0.4;fill:url(#SVGID_20_);enable-background:new    ;}
	.st23{opacity:0.4;fill:url(#SVGID_21_);enable-background:new    ;}
	.st24{opacity:0.4;fill:url(#SVGID_22_);enable-background:new    ;}
	.st25{opacity:0.4;fill:url(#SVGID_23_);enable-background:new    ;}
	.st26{opacity:0.4;fill:url(#SVGID_24_);enable-background:new    ;}
	.st27{opacity:0.4;fill:url(#SVGID_25_);enable-background:new    ;}
	.st28{opacity:0.4;fill:url(#SVGID_26_);enable-background:new    ;}
	.st29{opacity:0.4;fill:url(#SVGID_27_);enable-background:new    ;}
	.st30{opacity:0.4;fill:url(#SVGID_28_);enable-background:new    ;}
	.st31{opacity:0.4;fill:url(#SVGID_29_);enable-background:new    ;}
	.st32{opacity:0.4;fill:url(#SVGID_30_);enable-background:new    ;}
	.st33{opacity:0.4;fill:url(#SVGID_31_);enable-background:new    ;}
	.st34{opacity:0.4;fill:url(#SVGID_32_);enable-background:new    ;}
	.st35{opacity:0.4;fill:url(#SVGID_33_);enable-background:new    ;}
	.st36{opacity:0.4;fill:url(#SVGID_34_);enable-background:new    ;}
	.st37{opacity:0.4;fill:url(#SVGID_35_);enable-background:new    ;}
	.st38{opacity:0.4;fill:url(#SVGID_36_);enable-background:new    ;}
	.st39{opacity:0.4;fill:url(#SVGID_37_);enable-background:new    ;}
	.st40{opacity:0.4;fill:url(#SVGID_38_);enable-background:new    ;}
	.st41{opacity:0.4;fill:url(#SVGID_39_);enable-background:new    ;}
	.st42{opacity:0.4;fill:url(#SVGID_40_);enable-background:new    ;}
	.st43{opacity:0.4;fill:url(#SVGID_41_);enable-background:new    ;}
	.st44{opacity:0.4;fill:url(#SVGID_42_);enable-background:new    ;}
	.st45{opacity:0.4;fill:url(#SVGID_43_);enable-background:new    ;}
	.st46{opacity:0.4;fill:url(#SVGID_44_);enable-background:new    ;}
	.st47{opacity:0.4;fill:url(#SVGID_45_);enable-background:new    ;}
	.st48{opacity:0.4;fill:url(#SVGID_46_);enable-background:new    ;}
	.st49{opacity:0.4;fill:url(#SVGID_47_);enable-background:new    ;}
	.st50{opacity:0.4;fill:url(#SVGID_48_);enable-background:new    ;}
	.st51{opacity:0.4;fill:url(#SVGID_49_);enable-background:new    ;}
	.st52{opacity:0.4;fill:url(#SVGID_50_);enable-background:new    ;}
	.st53{opacity:0.4;fill:url(#SVGID_51_);enable-background:new    ;}
	.st54{opacity:0.4;fill:url(#SVGID_52_);enable-background:new    ;}
	.st55{opacity:0.4;fill:url(#SVGID_53_);enable-background:new    ;}
	.st56{opacity:0.4;fill:url(#SVGID_54_);enable-background:new    ;}
	.st57{opacity:0.4;fill:url(#SVGID_55_);enable-background:new    ;}
	.st58{opacity:0.4;fill:url(#SVGID_56_);enable-background:new    ;}
	.st59{opacity:0.4;fill:url(#SVGID_57_);enable-background:new    ;}
	.st60{opacity:0.4;fill:url(#SVGID_58_);enable-background:new    ;}
	.st61{opacity:0.4;fill:url(#SVGID_59_);enable-background:new    ;}
	.st62{opacity:0.4;fill:url(#SVGID_60_);enable-background:new    ;}
	.st63{opacity:0.4;fill:url(#SVGID_61_);enable-background:new    ;}
	.st64{opacity:0.4;fill:url(#SVGID_62_);enable-background:new    ;}
	.st65{opacity:0.4;fill:url(#SVGID_63_);enable-background:new    ;}
	.st66{opacity:0.4;fill:url(#SVGID_64_);enable-background:new    ;}
	.st67{opacity:0.4;fill:url(#SVGID_65_);enable-background:new    ;}
	.st68{opacity:0.4;fill:url(#SVGID_66_);enable-background:new    ;}
</style>
<linearGradient id="SVGID_1_" gradientUnits="userSpaceOnUse" x1="937.5" y1="-6928" x2="937.5" y2="-2867.9998" gradientTransform="matrix(1 0 0 1 0 6928)">
	<stop  offset="0" style="stop-color:#F54997"/>
	<stop  offset="1" style="stop-color:#3D06FF"/>
</linearGradient>
<rect y="0" class="st0" width="1875" height="4060"/>
<g>
	<g class="st1">
		
			<radialGradient id="SVGID_2_" cx="2071.5762" cy="10.353" r="5" gradientTransform="matrix(-339.3371 0 0 -484.7845 703985.875 7014.2358)" gradientUnits="userSpaceOnUse">
			<stop  offset="0" style="stop-color:#3D099D"/>
			<stop  offset="1" style="stop-color:#0D111D"/>
		</radialGradient>
		<path class="st2" d="M1875,0H0v4060h1875V0z"/>
		<g class="st3">
			
				<radialGradient id="SVGID_3_" cx="2072.165" cy="10.2709" r="3.5776" gradientTransform="matrix(-431.95 0 0 -616.37 895320.625 6842.687)" gradientUnits="userSpaceOnUse">
				<stop  offset="0" style="stop-color:#8100F1"/>
				<stop  offset="1" style="stop-color:#100047"/>
			</radialGradient>
			<path class="st4" d="M1098.3,4060L1875,2262.9V0L1.1,1.5L0,4060H1098.3z"/>
		</g>
		<g class="st3">
			
				<radialGradient id="SVGID_4_" cx="2064.6318" cy="-10.5986" r="3.2654" gradientTransform="matrix(423.3 0 0 603.88 -873193.625 6820.6421)" gradientUnits="userSpaceOnUse">
				<stop  offset="0" style="stop-color:#8100F1"/>
				<stop  offset="0.34" style="stop-color:#5400AD"/>
				<stop  offset="0.65" style="stop-color:#2F0076"/>
				<stop  offset="0.88" style="stop-color:#190054"/>
				<stop  offset="1" style="stop-color:#100047"/>
			</radialGradient>
			<path class="st5" d="M9.4,3013.1L1875,704V0H0L9.4,3013.1z"/>
		</g>
		<g class="st3">
			<g class="st3">
				
					<linearGradient id="SVGID_5_" gradientUnits="userSpaceOnUse" x1="-358.2815" y1="-5361.0649" x2="839.793" y2="-4850.9546" gradientTransform="matrix(1 0 0 1 0 6928)">
					<stop  offset="0" style="stop-color:#3A0A92"/>
					<stop  offset="1" style="stop-color:#0C0942"/>
				</linearGradient>
				<path class="st6" d="M0,0h1458.6L506.7,4060H0V0z"/>
			</g>
		</g>
		<g class="st3">
			<polygon class="st7" points="430.5,0 924.3,4060 954.2,4060 460.4,0 			"/>
			<polygon class="st7" points="360.4,0 853.7,4060 883.6,4060 390.3,0 			"/>
			<polygon class="st7" points="395.4,0 888.6,4060 919.2,4060 425.5,0 			"/>
			<polygon class="st7" points="465.5,0 959.2,4060 989.2,4060 495.9,0 			"/>
			<polygon class="st7" points="325.4,0 818.7,4060 848.6,4060 355.4,0 			"/>
			<polygon class="st7" points="290.4,0 783.7,4060 813.7,4060 320.4,0 			"/>
			<polygon class="st7" points="184.8,0 678.1,4060 708.7,4060 214.9,0 			"/>
			<polygon class="st7" points="255.5,0 748.8,4060 778.7,4060 285.4,0 			"/>
			<polygon class="st7" points="501,0 994.3,4060 1024.2,4060 530.9,0 			"/>
			<polygon class="st7" points="219.9,0 713.7,4060 743.7,4060 250.4,0 			"/>
			<polygon class="st7" points="746.5,0 1239.8,4060 1269.7,4060 776.4,0 			"/>
			<polygon class="st7" points="781.5,0 1274.8,4060 1304.7,4060 811.4,0 			"/>
			<polygon class="st7" points="816.4,0 1309.7,4060 1339.7,4060 846.4,0 			"/>
			<polygon class="st7" points="711.5,0 1204.8,4060 1234.7,4060 741.5,0 			"/>
			<polygon class="st7" points="851.4,0 1344.7,4060 1375.3,4060 881.5,0 			"/>
			<polygon class="st7" points="640.9,0 1134.2,4060 1164.7,4060 671,0 			"/>
			<polygon class="st7" points="676,0 1169.8,4060 1199.8,4060 706.5,0 			"/>
			<polygon class="st7" points="570.9,0 1064.2,4060 1094.2,4060 600.9,0 			"/>
			<polygon class="st7" points="605.9,0 1099.2,4060 1129.1,4060 635.8,0 			"/>
			<polygon class="st7" points="536,0 1029.2,4060 1059.2,4060 565.9,0 			"/>
			<polygon class="st7" points="0,3096 117.1,4060 147.1,4060 0,2849.6 			"/>
			<polygon class="st7" points="0,1944.7 257,4060 287.6,4060 0,1695.3 			"/>
			<polygon class="st7" points="0,2808.1 152.1,4060 182,4060 0,2561.7 			"/>
			<polygon class="st7" points="0,2232.4 222.1,4060 252,4060 0,1986.2 			"/>
			<polygon class="st7" points="149.8,0 643.1,4060 673.1,4060 179.8,0 			"/>
			<polygon class="st7" points="0,3383.8 82.2,4060 112.1,4060 0,3137.5 			"/>
			<polygon class="st7" points="0,4060 6.5,4060 0,4006.8 			"/>
			<polygon class="st7" points="886.5,0 1380.4,4060 1410.3,4060 917,0 			"/>
			<polygon class="st7" points="0,3965.3 11.5,4060 42.1,4060 0,3713.9 			"/>
			<polygon class="st7" points="0,3672.5 47.1,4060 77.1,4060 0,3425.3 			"/>
			<polygon class="st7" points="0,2520.3 187.1,4060 217,4060 0,2273.8 			"/>
			<polygon class="st7" points="0,0 0,211.7 467.6,4060 498.1,4060 4.4,0 			"/>
			<polygon class="st7" points="0,1653.9 292.6,4060 322.6,4060 0,1404.5 			"/>
			<polygon class="st7" points="9.4,0 503.2,4060 533.2,4060 39.9,0 			"/>
			<polygon class="st7" points="114.9,0 608.2,4060 638.1,4060 144.8,0 			"/>
			<polygon class="st7" points="79.9,0 573.2,4060 603.1,4060 109.8,0 			"/>
			<polygon class="st7" points="44.9,0 538.2,4060 568.1,4060 74.9,0 			"/>
			<polygon class="st7" points="0,1363.1 327.7,4060 357.6,4060 0,1116.7 			"/>
			<polygon class="st7" points="0,1075.2 362.6,4060 392.6,4060 0,828.9 			"/>
			<polygon class="st7" points="0,787.4 397.6,4060 427.6,4060 0,541 			"/>
			<polygon class="st7" points="0,499.5 432.6,4060 462.5,4060 0,253.2 			"/>
			<polygon class="st7" points="1307.6,0 1801.4,4060 1831.3,4060 1337.6,0 			"/>
			<polygon class="st7" points="1202.5,0 1695.8,4060 1725.8,4060 1232.5,0 			"/>
			<polygon class="st7" points="1237.5,0 1730.8,4060 1760.7,4060 1267.5,0 			"/>
			<polygon class="st7" points="1272.5,0 1765.8,4060 1796.3,4060 1302.6,0 			"/>
			<polygon class="st7" points="1378.1,0 1871.4,4060 1875,4060 1875,3842.9 1408.1,0 			"/>
			<polygon class="st7" points="1342.6,0 1836.4,4060 1866.4,4060 1373.1,0 			"/>
			<polygon class="st7" points="1062,0 1555.2,4060 1585.8,4060 1092,0 			"/>
			<polygon class="st7" points="1132.6,0 1625.9,4060 1655.8,4060 1162.5,0 			"/>
			<polygon class="st7" points="1167.6,0 1660.9,4060 1690.8,4060 1197.5,0 			"/>
			<polygon class="st7" points="1097.1,0 1590.9,4060 1620.9,4060 1127.6,0 			"/>
			<polygon class="st7" points="1588.7,0 1875,2356.6 1875,2110.4 1618.6,0 			"/>
			<polygon class="st7" points="1553.1,0 1875,2646.5 1875,2398.1 1583.7,0 			"/>
			<polygon class="st7" points="1448.1,0 1875,3513.9 1875,3267.5 1478,0 			"/>
			<polygon class="st7" points="1518,0 1875,2938.1 1875,2687.9 1548.1,0 			"/>
			<polygon class="st7" points="1413.1,0 1875,3801.5 1875,3555.3 1443,0 			"/>
			<polygon class="st7" points="1483,0 1875,3226 1875,2979.6 1513,0 			"/>
			<polygon class="st7" points="1875,2068.9 1875,0 1623.6,0 			"/>
			<polygon class="st7" points="922.1,0 1415.3,4060 1445.3,4060 952,0 			"/>
			<polygon class="st7" points="1027,0 1520.3,4060 1550.2,4060 1056.9,0 			"/>
			<polygon class="st7" points="992,0 1485.3,4060 1515.2,4060 1021.9,0 			"/>
			<polygon class="st7" points="957,0 1450.3,4060 1480.3,4060 987,0 			"/>
			
				<radialGradient id="SVGID_6_" cx="2057.7878" cy="-13.4151" r="4.1914" gradientTransform="matrix(224.96 0 0 418.98 -463203.5312 7263.5127)" gradientUnits="userSpaceOnUse">
				<stop  offset="0" style="stop-color:#B700FF"/>
				<stop  offset="1" style="stop-color:#100047"/>
			</radialGradient>
			<polygon class="st8" points="0,4006.8 6.5,4060 11.5,4060 0,3965.3 			"/>
			
				<radialGradient id="SVGID_7_" cx="2057.9087" cy="-13.4151" r="4.1903" gradientTransform="matrix(224.96 0 0 418.98 -463196.5312 7263.5127)" gradientUnits="userSpaceOnUse">
				<stop  offset="0" style="stop-color:#B700FF"/>
				<stop  offset="1" style="stop-color:#100047"/>
			</radialGradient>
			<polygon class="st9" points="0,3713.9 42.1,4060 47.1,4060 0,3672.5 			"/>
			
				<radialGradient id="SVGID_8_" cx="2058.0388" cy="-13.4151" r="4.1911" gradientTransform="matrix(224.96 0 0 418.98 -463189.5 7263.5127)" gradientUnits="userSpaceOnUse">
				<stop  offset="0" style="stop-color:#B700FF"/>
				<stop  offset="1" style="stop-color:#100047"/>
			</radialGradient>
			<polygon class="st10" points="0,3425.3 77.1,4060 82.2,4060 0,3383.8 			"/>
			
				<radialGradient id="SVGID_9_" cx="2058.1587" cy="-13.4151" r="4.1907" gradientTransform="matrix(224.96 0 0 418.98 -463182.4688 7263.5127)" gradientUnits="userSpaceOnUse">
				<stop  offset="0" style="stop-color:#B700FF"/>
				<stop  offset="1" style="stop-color:#100047"/>
			</radialGradient>
			<polygon class="st11" points="0,3137.5 112.1,4060 117.1,4060 0,3096 			"/>
			
				<radialGradient id="SVGID_10_" cx="2058.2878" cy="-13.4151" r="4.1914" gradientTransform="matrix(224.96 0 0 418.98 -463175.4688 7263.5127)" gradientUnits="userSpaceOnUse">
				<stop  offset="0" style="stop-color:#B700FF"/>
				<stop  offset="1" style="stop-color:#100047"/>
			</radialGradient>
			<polygon class="st12" points="0,2849.6 147.1,4060 152.1,4060 0,2808.1 			"/>
			
				<radialGradient id="SVGID_11_" cx="2058.4106" cy="-13.4151" r="4.1906" gradientTransform="matrix(224.96 0 0 418.98 -463168.4375 7263.5127)" gradientUnits="userSpaceOnUse">
				<stop  offset="0" style="stop-color:#B700FF"/>
				<stop  offset="1" style="stop-color:#100047"/>
			</radialGradient>
			<polygon class="st13" points="0,2561.7 182,4060 187.1,4060 0,2520.3 			"/>
			
				<radialGradient id="SVGID_12_" cx="2058.5383" cy="-13.4151" r="4.1913" gradientTransform="matrix(224.96 0 0 418.98 -463161.9375 7263.5127)" gradientUnits="userSpaceOnUse">
				<stop  offset="0" style="stop-color:#B700FF"/>
				<stop  offset="1" style="stop-color:#100047"/>
			</radialGradient>
			<polygon class="st14" points="0,2273.8 217,4060 222.1,4060 0,2232.4 			"/>
			
				<radialGradient id="SVGID_13_" cx="2058.6597" cy="-13.4151" r="4.1909" gradientTransform="matrix(224.96 0 0 418.98 -463154.4062 7263.5127)" gradientUnits="userSpaceOnUse">
				<stop  offset="0" style="stop-color:#B700FF"/>
				<stop  offset="1" style="stop-color:#100047"/>
			</radialGradient>
			<polygon class="st15" points="0,1986.2 252,4060 257,4060 0,1944.7 			"/>
			
				<radialGradient id="SVGID_14_" cx="2058.7871" cy="-13.4151" r="4.1913" gradientTransform="matrix(224.96 0 0 418.98 -463147.375 7263.5127)" gradientUnits="userSpaceOnUse">
				<stop  offset="0" style="stop-color:#B700FF"/>
				<stop  offset="1" style="stop-color:#100047"/>
			</radialGradient>
			<polygon class="st16" points="0,1695.3 287.6,4060 292.6,4060 0,1653.9 			"/>
			
				<radialGradient id="SVGID_15_" cx="2058.9077" cy="-13.4151" r="4.191" gradientTransform="matrix(224.96 0 0 418.98 -463140.375 7263.5127)" gradientUnits="userSpaceOnUse">
				<stop  offset="0" style="stop-color:#B700FF"/>
				<stop  offset="1" style="stop-color:#100047"/>
			</radialGradient>
			<polygon class="st17" points="0,1404.5 322.6,4060 327.7,4060 0,1363.1 			"/>
			
				<radialGradient id="SVGID_16_" cx="2059.0371" cy="-13.4151" r="4.1916" gradientTransform="matrix(224.96 0 0 418.98 -463133.3438 7263.5127)" gradientUnits="userSpaceOnUse">
				<stop  offset="0" style="stop-color:#B700FF"/>
				<stop  offset="1" style="stop-color:#100047"/>
			</radialGradient>
			<polygon class="st18" points="0,1116.7 357.6,4060 362.6,4060 0,1075.2 			"/>
			
				<radialGradient id="SVGID_17_" cx="2059.1597" cy="-13.4151" r="4.1908" gradientTransform="matrix(224.96 0 0 418.98 -463126.3438 7263.5127)" gradientUnits="userSpaceOnUse">
				<stop  offset="0" style="stop-color:#B700FF"/>
				<stop  offset="1" style="stop-color:#100047"/>
			</radialGradient>
			<polygon class="st19" points="0,828.9 392.6,4060 397.6,4060 0,787.4 			"/>
			
				<radialGradient id="SVGID_18_" cx="2059.2864" cy="-13.4151" r="4.1919" gradientTransform="matrix(224.96 0 0 418.98 -463119.3125 7263.5127)" gradientUnits="userSpaceOnUse">
				<stop  offset="0" style="stop-color:#B700FF"/>
				<stop  offset="1" style="stop-color:#100047"/>
			</radialGradient>
			<polygon class="st20" points="0,541 427.6,4060 432.6,4060 0,499.5 			"/>
			
				<radialGradient id="SVGID_19_" cx="2059.4089" cy="-13.4151" r="4.1911" gradientTransform="matrix(224.96 0 0 418.98 -463112.3125 7263.5127)" gradientUnits="userSpaceOnUse">
				<stop  offset="0" style="stop-color:#B700FF"/>
				<stop  offset="1" style="stop-color:#100047"/>
			</radialGradient>
			<polygon class="st21" points="0,253.2 462.5,4060 467.6,4060 0,211.7 			"/>
			
				<radialGradient id="SVGID_20_" cx="2059.5364" cy="-13.4151" r="4.1915" gradientTransform="matrix(224.96 0 0 418.98 -463105.2812 7263.5127)" gradientUnits="userSpaceOnUse">
				<stop  offset="0" style="stop-color:#B700FF"/>
				<stop  offset="1" style="stop-color:#100047"/>
			</radialGradient>
			<polygon class="st22" points="4.4,0 498.1,4060 503.2,4060 9.4,0 			"/>
			
				<radialGradient id="SVGID_21_" cx="2059.6599" cy="-13.4151" r="4.1908" gradientTransform="matrix(224.96 0 0 418.98 -463098.2812 7263.5127)" gradientUnits="userSpaceOnUse">
				<stop  offset="0" style="stop-color:#B700FF"/>
				<stop  offset="1" style="stop-color:#100047"/>
			</radialGradient>
			<polygon class="st23" points="39.9,0 533.2,4060 538.2,4060 44.9,0 			"/>
			
				<radialGradient id="SVGID_22_" cx="2059.7878" cy="-13.4151" r="4.1914" gradientTransform="matrix(224.96 0 0 418.98 -463091.7812 7263.5127)" gradientUnits="userSpaceOnUse">
				<stop  offset="0" style="stop-color:#B700FF"/>
				<stop  offset="1" style="stop-color:#100047"/>
			</radialGradient>
			<polygon class="st24" points="74.9,0 568.1,4060 573.2,4060 79.9,0 			"/>
			
				<radialGradient id="SVGID_23_" cx="2059.9089" cy="-13.4151" r="4.1911" gradientTransform="matrix(224.96 0 0 418.98 -463084.25 7263.5127)" gradientUnits="userSpaceOnUse">
				<stop  offset="0" style="stop-color:#B700FF"/>
				<stop  offset="1" style="stop-color:#100047"/>
			</radialGradient>
			<polygon class="st25" points="109.8,0 603.1,4060 608.2,4060 114.9,0 			"/>
			
				<radialGradient id="SVGID_24_" cx="2060.0354" cy="-13.4151" r="4.1921" gradientTransform="matrix(224.96 0 0 418.98 -463077.2188 7263.5127)" gradientUnits="userSpaceOnUse">
				<stop  offset="0" style="stop-color:#B700FF"/>
				<stop  offset="1" style="stop-color:#100047"/>
			</radialGradient>
			<polygon class="st26" points="144.8,0 638.1,4060 643.1,4060 149.8,0 			"/>
			
				<radialGradient id="SVGID_25_" cx="2060.1582" cy="-13.4151" r="4.1913" gradientTransform="matrix(224.96 0 0 418.98 -463070.1875 7263.5127)" gradientUnits="userSpaceOnUse">
				<stop  offset="0" style="stop-color:#B700FF"/>
				<stop  offset="1" style="stop-color:#100047"/>
			</radialGradient>
			<polygon class="st27" points="179.8,0 673.1,4060 678.1,4060 184.8,0 			"/>
			
				<radialGradient id="SVGID_26_" cx="2060.2856" cy="-13.4151" r="4.1917" gradientTransform="matrix(224.96 0 0 418.98 -463063.1875 7263.5127)" gradientUnits="userSpaceOnUse">
				<stop  offset="0" style="stop-color:#B700FF"/>
				<stop  offset="1" style="stop-color:#100047"/>
			</radialGradient>
			<polygon class="st28" points="214.9,0 708.7,4060 713.7,4060 219.9,0 			"/>
			
				<radialGradient id="SVGID_27_" cx="2060.4092" cy="-13.4151" r="4.191" gradientTransform="matrix(224.96 0 0 418.98 -463056.1562 7263.5127)" gradientUnits="userSpaceOnUse">
				<stop  offset="0" style="stop-color:#B700FF"/>
				<stop  offset="1" style="stop-color:#100047"/>
			</radialGradient>
			<polygon class="st29" points="250.4,0 743.7,4060 748.8,4060 255.5,0 			"/>
			
				<radialGradient id="SVGID_28_" cx="2060.5356" cy="-13.4151" r="4.1921" gradientTransform="matrix(224.96 0 0 418.98 -463049.1562 7263.5127)" gradientUnits="userSpaceOnUse">
				<stop  offset="0" style="stop-color:#B700FF"/>
				<stop  offset="1" style="stop-color:#100047"/>
			</radialGradient>
			<polygon class="st30" points="285.4,0 778.7,4060 783.7,4060 290.4,0 			"/>
			
				<radialGradient id="SVGID_29_" cx="2060.6582" cy="-13.4151" r="4.1913" gradientTransform="matrix(224.96 0 0 418.98 -463042.125 7263.5127)" gradientUnits="userSpaceOnUse">
				<stop  offset="0" style="stop-color:#B700FF"/>
				<stop  offset="1" style="stop-color:#100047"/>
			</radialGradient>
			<polygon class="st31" points="320.4,0 813.7,4060 818.7,4060 325.4,0 			"/>
			
				<radialGradient id="SVGID_30_" cx="2060.7778" cy="-13.4151" r="4.1909" gradientTransform="matrix(224.96 0 0 418.98 -463035.125 7263.5127)" gradientUnits="userSpaceOnUse">
				<stop  offset="0" style="stop-color:#B700FF"/>
				<stop  offset="1" style="stop-color:#100047"/>
			</radialGradient>
			<polygon class="st32" points="355.4,0 848.6,4060 853.7,4060 360.4,0 			"/>
			
				<radialGradient id="SVGID_31_" cx="2060.9075" cy="-13.4151" r="4.1916" gradientTransform="matrix(224.96 0 0 418.98 -463028.0938 7263.5127)" gradientUnits="userSpaceOnUse">
				<stop  offset="0" style="stop-color:#B700FF"/>
				<stop  offset="1" style="stop-color:#100047"/>
			</radialGradient>
			<polygon class="st33" points="390.3,0 883.6,4060 888.6,4060 395.4,0 			"/>
			
				<radialGradient id="SVGID_32_" cx="2061.0278" cy="-13.4151" r="4.1905" gradientTransform="matrix(224.96 0 0 418.98 -463021.0625 7263.5127)" gradientUnits="userSpaceOnUse">
				<stop  offset="0" style="stop-color:#B700FF"/>
				<stop  offset="1" style="stop-color:#100047"/>
			</radialGradient>
			<polygon class="st34" points="425.5,0 919.2,4060 924.3,4060 430.5,0 			"/>
			
				<radialGradient id="SVGID_33_" cx="2061.1575" cy="-13.4151" r="4.1912" gradientTransform="matrix(224.96 0 0 418.98 -463014.0625 7263.5127)" gradientUnits="userSpaceOnUse">
				<stop  offset="0" style="stop-color:#B700FF"/>
				<stop  offset="1" style="stop-color:#100047"/>
			</radialGradient>
			<polygon class="st35" points="460.4,0 954.2,4060 959.2,4060 465.5,0 			"/>
			
				<radialGradient id="SVGID_34_" cx="2061.2781" cy="-13.4151" r="4.1909" gradientTransform="matrix(224.96 0 0 418.98 -463007.0625 7263.5127)" gradientUnits="userSpaceOnUse">
				<stop  offset="0" style="stop-color:#B700FF"/>
				<stop  offset="1" style="stop-color:#100047"/>
			</radialGradient>
			<polygon class="st36" points="495.9,0 989.2,4060 994.3,4060 501,0 			"/>
			
				<radialGradient id="SVGID_35_" cx="2061.4075" cy="-13.4151" r="4.1915" gradientTransform="matrix(224.96 0 0 418.98 -463000.0312 7263.5127)" gradientUnits="userSpaceOnUse">
				<stop  offset="0" style="stop-color:#B700FF"/>
				<stop  offset="1" style="stop-color:#100047"/>
			</radialGradient>
			<polygon class="st37" points="530.9,0 1024.2,4060 1029.2,4060 536,0 			"/>
			
				<radialGradient id="SVGID_36_" cx="2061.53" cy="-13.4151" r="4.1908" gradientTransform="matrix(224.96 0 0 418.98 -462993 7263.5127)" gradientUnits="userSpaceOnUse">
				<stop  offset="0" style="stop-color:#B700FF"/>
				<stop  offset="1" style="stop-color:#100047"/>
			</radialGradient>
			<polygon class="st38" points="565.9,0 1059.2,4060 1064.2,4060 570.9,0 			"/>
			
				<radialGradient id="SVGID_37_" cx="2061.6565" cy="-13.4151" r="4.1918" gradientTransform="matrix(224.96 0 0 418.98 -462986 7263.5127)" gradientUnits="userSpaceOnUse">
				<stop  offset="0" style="stop-color:#B700FF"/>
				<stop  offset="1" style="stop-color:#100047"/>
			</radialGradient>
			<polygon class="st39" points="600.9,0 1094.2,4060 1099.2,4060 605.9,0 			"/>
			
				<radialGradient id="SVGID_38_" cx="2061.7793" cy="-13.4151" r="4.191" gradientTransform="matrix(224.96 0 0 418.98 -462978.9688 7263.5127)" gradientUnits="userSpaceOnUse">
				<stop  offset="0" style="stop-color:#B700FF"/>
				<stop  offset="1" style="stop-color:#100047"/>
			</radialGradient>
			<polygon class="st40" points="635.8,0 1129.1,4060 1134.2,4060 640.9,0 			"/>
			
				<radialGradient id="SVGID_39_" cx="2061.9067" cy="-13.4151" r="4.1914" gradientTransform="matrix(224.96 0 0 418.98 -462971.9688 7263.5127)" gradientUnits="userSpaceOnUse">
				<stop  offset="0" style="stop-color:#B700FF"/>
				<stop  offset="1" style="stop-color:#100047"/>
			</radialGradient>
			<polygon class="st41" points="671,0 1164.7,4060 1169.8,4060 676,0 			"/>
			
				<radialGradient id="SVGID_40_" cx="2062.0303" cy="-13.4151" r="4.1907" gradientTransform="matrix(224.96 0 0 418.98 -462964.9375 7263.5127)" gradientUnits="userSpaceOnUse">
				<stop  offset="0" style="stop-color:#B700FF"/>
				<stop  offset="1" style="stop-color:#100047"/>
			</radialGradient>
			<polygon class="st42" points="706.5,0 1199.8,4060 1204.8,4060 711.5,0 			"/>
			
				<radialGradient id="SVGID_41_" cx="2062.1567" cy="-13.4151" r="4.1918" gradientTransform="matrix(224.96 0 0 418.98 -462957.9375 7263.5127)" gradientUnits="userSpaceOnUse">
				<stop  offset="0" style="stop-color:#B700FF"/>
				<stop  offset="1" style="stop-color:#100047"/>
			</radialGradient>
			<polygon class="st43" points="741.5,0 1234.7,4060 1239.8,4060 746.5,0 			"/>
			
				<radialGradient id="SVGID_42_" cx="2062.2793" cy="-13.4151" r="4.191" gradientTransform="matrix(224.96 0 0 418.98 -462950.9062 7263.5127)" gradientUnits="userSpaceOnUse">
				<stop  offset="0" style="stop-color:#B700FF"/>
				<stop  offset="1" style="stop-color:#100047"/>
			</radialGradient>
			<polygon class="st44" points="776.4,0 1269.7,4060 1274.8,4060 781.5,0 			"/>
			
				<radialGradient id="SVGID_43_" cx="2062.4058" cy="-13.4151" r="4.192" gradientTransform="matrix(224.96 0 0 418.98 -462943.875 7263.5127)" gradientUnits="userSpaceOnUse">
				<stop  offset="0" style="stop-color:#B700FF"/>
				<stop  offset="1" style="stop-color:#100047"/>
			</radialGradient>
			<polygon class="st45" points="811.4,0 1304.7,4060 1309.7,4060 816.4,0 			"/>
			
				<radialGradient id="SVGID_44_" cx="2062.5298" cy="-13.4151" r="4.1908" gradientTransform="matrix(224.96 0 0 418.98 -462937.375 7263.5127)" gradientUnits="userSpaceOnUse">
				<stop  offset="0" style="stop-color:#B700FF"/>
				<stop  offset="1" style="stop-color:#100047"/>
			</radialGradient>
			<polygon class="st46" points="846.4,0 1339.7,4060 1344.7,4060 851.4,0 			"/>
			
				<radialGradient id="SVGID_45_" cx="2062.656" cy="-13.4151" r="4.1916" gradientTransform="matrix(224.96 0 0 418.98 -462929.8438 7263.5127)" gradientUnits="userSpaceOnUse">
				<stop  offset="0" style="stop-color:#B700FF"/>
				<stop  offset="1" style="stop-color:#100047"/>
			</radialGradient>
			<polygon class="st47" points="881.5,0 1375.3,4060 1380.4,4060 886.5,0 			"/>
			
				<radialGradient id="SVGID_46_" cx="2062.7795" cy="-13.4151" r="4.191" gradientTransform="matrix(224.96 0 0 418.98 -462922.8438 7263.5127)" gradientUnits="userSpaceOnUse">
				<stop  offset="0" style="stop-color:#B700FF"/>
				<stop  offset="1" style="stop-color:#100047"/>
			</radialGradient>
			<polygon class="st48" points="917,0 1410.3,4060 1415.3,4060 922.1,0 			"/>
			
				<radialGradient id="SVGID_47_" cx="2062.9072" cy="-13.4151" r="4.1916" gradientTransform="matrix(224.96 0 0 418.98 -462916.3438 7263.5127)" gradientUnits="userSpaceOnUse">
				<stop  offset="0" style="stop-color:#B700FF"/>
				<stop  offset="1" style="stop-color:#100047"/>
			</radialGradient>
			<polygon class="st49" points="952,0 1445.3,4060 1450.3,4060 957,0 			"/>
			
				<radialGradient id="SVGID_48_" cx="2063.0286" cy="-13.4151" r="4.1912" gradientTransform="matrix(224.96 0 0 418.98 -462908.8125 7263.5127)" gradientUnits="userSpaceOnUse">
				<stop  offset="0" style="stop-color:#B700FF"/>
				<stop  offset="1" style="stop-color:#100047"/>
			</radialGradient>
			<polygon class="st50" points="987,0 1480.3,4060 1485.3,4060 992,0 			"/>
			
				<radialGradient id="SVGID_49_" cx="2063.1506" cy="-13.4151" r="4.1903" gradientTransform="matrix(224.96 0 0 418.98 -462902.3125 7263.5127)" gradientUnits="userSpaceOnUse">
				<stop  offset="0" style="stop-color:#B700FF"/>
				<stop  offset="1" style="stop-color:#100047"/>
			</radialGradient>
			<polygon class="st51" points="1021.9,0 1515.2,4060 1520.3,4060 1027,0 			"/>
			
				<radialGradient id="SVGID_50_" cx="2063.2791" cy="-13.4151" r="4.1911" gradientTransform="matrix(224.96 0 0 418.98 -462895.2812 7263.5127)" gradientUnits="userSpaceOnUse">
				<stop  offset="0" style="stop-color:#B700FF"/>
				<stop  offset="1" style="stop-color:#100047"/>
			</radialGradient>
			<polygon class="st52" points="1056.9,0 1550.2,4060 1555.2,4060 1062,0 			"/>
			
				<radialGradient id="SVGID_51_" cx="2063.3984" cy="-13.4151" r="4.1904" gradientTransform="matrix(224.96 0 0 418.98 -462887.75 7263.5127)" gradientUnits="userSpaceOnUse">
				<stop  offset="0" style="stop-color:#B700FF"/>
				<stop  offset="1" style="stop-color:#100047"/>
			</radialGradient>
			<polygon class="st53" points="1092,0 1585.8,4060 1590.9,4060 1097.1,0 			"/>
			
				<radialGradient id="SVGID_52_" cx="2063.5288" cy="-13.4151" r="4.1912" gradientTransform="matrix(224.96 0 0 418.98 -462880.75 7263.5127)" gradientUnits="userSpaceOnUse">
				<stop  offset="0" style="stop-color:#B700FF"/>
				<stop  offset="1" style="stop-color:#100047"/>
			</radialGradient>
			<polygon class="st54" points="1127.6,0 1620.9,4060 1625.9,4060 1132.6,0 			"/>
			
				<radialGradient id="SVGID_53_" cx="2063.6509" cy="-13.4151" r="4.1902" gradientTransform="matrix(224.96 0 0 418.98 -462874.2188 7263.5127)" gradientUnits="userSpaceOnUse">
				<stop  offset="0" style="stop-color:#B700FF"/>
				<stop  offset="1" style="stop-color:#100047"/>
			</radialGradient>
			<polygon class="st55" points="1162.5,0 1655.8,4060 1660.9,4060 1167.6,0 			"/>
			
				<radialGradient id="SVGID_54_" cx="2063.7778" cy="-13.4151" r="4.1914" gradientTransform="matrix(224.96 0 0 418.98 -462866.6875 7263.5127)" gradientUnits="userSpaceOnUse">
				<stop  offset="0" style="stop-color:#B700FF"/>
				<stop  offset="1" style="stop-color:#100047"/>
			</radialGradient>
			<polygon class="st56" points="1197.5,0 1690.8,4060 1695.8,4060 1202.5,0 			"/>
			
				<radialGradient id="SVGID_55_" cx="2063.9004" cy="-13.4151" r="4.1907" gradientTransform="matrix(224.96 0 0 418.98 -462859.6875 7263.5127)" gradientUnits="userSpaceOnUse">
				<stop  offset="0" style="stop-color:#B700FF"/>
				<stop  offset="1" style="stop-color:#100047"/>
			</radialGradient>
			<polygon class="st57" points="1232.5,0 1725.8,4060 1730.8,4060 1237.5,0 			"/>
			
				<radialGradient id="SVGID_56_" cx="2064.0283" cy="-13.4151" r="4.1913" gradientTransform="matrix(224.96 0 0 418.98 -462853.1875 7263.5127)" gradientUnits="userSpaceOnUse">
				<stop  offset="0" style="stop-color:#B700FF"/>
				<stop  offset="1" style="stop-color:#100047"/>
			</radialGradient>
			<polygon class="st58" points="1267.5,0 1760.7,4060 1765.8,4060 1272.5,0 			"/>
			
				<radialGradient id="SVGID_57_" cx="2064.1504" cy="-13.4151" r="4.1903" gradientTransform="matrix(224.96 0 0 418.98 -462845.6562 7263.5127)" gradientUnits="userSpaceOnUse">
				<stop  offset="0" style="stop-color:#B700FF"/>
				<stop  offset="1" style="stop-color:#100047"/>
			</radialGradient>
			<polygon class="st59" points="1302.6,0 1796.3,4060 1801.4,4060 1307.6,0 			"/>
			
				<radialGradient id="SVGID_58_" cx="2064.2769" cy="-13.4151" r="4.1913" gradientTransform="matrix(224.96 0 0 418.98 -462838.625 7263.5127)" gradientUnits="userSpaceOnUse">
				<stop  offset="0" style="stop-color:#B700FF"/>
				<stop  offset="1" style="stop-color:#100047"/>
			</radialGradient>
			<polygon class="st60" points="1337.6,0 1831.3,4060 1836.4,4060 1342.6,0 			"/>
			
				<radialGradient id="SVGID_59_" cx="2064.4004" cy="-13.4151" r="4.1906" gradientTransform="matrix(224.96 0 0 418.98 -462831.625 7263.5127)" gradientUnits="userSpaceOnUse">
				<stop  offset="0" style="stop-color:#B700FF"/>
				<stop  offset="1" style="stop-color:#100047"/>
			</radialGradient>
			<polygon class="st61" points="1373.1,0 1866.4,4060 1871.4,4060 1378.1,0 			"/>
			
				<radialGradient id="SVGID_60_" cx="2064.5271" cy="-13.4151" r="4.1916" gradientTransform="matrix(224.96 0 0 418.98 -462824.5938 7263.5127)" gradientUnits="userSpaceOnUse">
				<stop  offset="0" style="stop-color:#B700FF"/>
				<stop  offset="1" style="stop-color:#100047"/>
			</radialGradient>
			<polygon class="st62" points="1408.1,0 1875,3842.9 1875,3801.5 1413.1,0 			"/>
			
				<radialGradient id="SVGID_61_" cx="2064.6497" cy="-13.4151" r="4.1909" gradientTransform="matrix(224.96 0 0 418.98 -462817.5625 7263.5127)" gradientUnits="userSpaceOnUse">
				<stop  offset="0" style="stop-color:#B700FF"/>
				<stop  offset="1" style="stop-color:#100047"/>
			</radialGradient>
			<polygon class="st63" points="1443,0 1875,3555.3 1875,3513.9 1448.1,0 			"/>
			
				<radialGradient id="SVGID_62_" cx="2064.7776" cy="-13.4151" r="4.1915" gradientTransform="matrix(224.96 0 0 418.98 -462811.0625 7263.5127)" gradientUnits="userSpaceOnUse">
				<stop  offset="0" style="stop-color:#B700FF"/>
				<stop  offset="1" style="stop-color:#100047"/>
			</radialGradient>
			<polygon class="st64" points="1478,0 1875,3267.5 1875,3226 1483,0 			"/>
			
				<radialGradient id="SVGID_63_" cx="2064.8987" cy="-13.4151" r="4.1911" gradientTransform="matrix(224.96 0 0 418.98 -462803.5625 7263.5127)" gradientUnits="userSpaceOnUse">
				<stop  offset="0" style="stop-color:#B700FF"/>
				<stop  offset="1" style="stop-color:#100047"/>
			</radialGradient>
			<polygon class="st65" points="1513,0 1875,2979.6 1875,2938.1 1518,0 			"/>
			
				<radialGradient id="SVGID_64_" cx="2065.0261" cy="-13.4151" r="4.1916" gradientTransform="matrix(224.96 0 0 418.98 -462796.5312 7263.5127)" gradientUnits="userSpaceOnUse">
				<stop  offset="0" style="stop-color:#B700FF"/>
				<stop  offset="1" style="stop-color:#100047"/>
			</radialGradient>
			<polygon class="st66" points="1548.1,0 1875,2687.9 1875,2646.5 1553.1,0 			"/>
			
				<radialGradient id="SVGID_65_" cx="2065.1484" cy="-13.4151" r="4.1908" gradientTransform="matrix(224.96 0 0 418.98 -462790.0312 7263.5127)" gradientUnits="userSpaceOnUse">
				<stop  offset="0" style="stop-color:#B700FF"/>
				<stop  offset="1" style="stop-color:#100047"/>
			</radialGradient>
			<polygon class="st67" points="1583.7,0 1875,2398.1 1875,2356.6 1588.7,0 			"/>
			
				<radialGradient id="SVGID_66_" cx="2065.2764" cy="-13.4151" r="4.1919" gradientTransform="matrix(224.96 0 0 418.98 -462782.5 7263.5127)" gradientUnits="userSpaceOnUse">
				<stop  offset="0" style="stop-color:#B700FF"/>
				<stop  offset="1" style="stop-color:#100047"/>
			</radialGradient>
			<polygon class="st68" points="1618.6,0 1875,2110.4 1875,2068.9 1623.6,0 			"/>
		</g>
	</g>
</g>
</svg>
