<svg width="147" height="132" viewBox="0 0 147 132" fill="none" xmlns="http://www.w3.org/2000/svg">
<circle opacity="0.3" cx="69.5" cy="68.5" r="63.5" fill="url(#paint0_linear)"/>
<circle opacity="0.3" cx="25.5" cy="25.5" r="25.5" fill="url(#paint1_linear)"/>
<circle opacity="0.3" cx="121.5" cy="106.5" r="25.5" fill="url(#paint2_linear)"/>
<circle opacity="0.3" cx="132.5" cy="84.5" r="11.5" fill="url(#paint3_linear)"/>
<circle opacity="0.3" cx="11.5" cy="46.5" r="11.5" fill="url(#paint4_linear)"/>
<path d="M94.7726 76.3249V84.1387C94.7726 87.2496 92.2329 89.864 89.0319 89.864H86.4171C84.9594 89.864 83.7271 88.6371 83.7271 87.2204V73.2432V67.5325C83.7271 59.6603 77.1149 53.2486 68.9998 53.2486C60.8848 53.2486 54.2726 59.6749 54.2726 67.5763V84.4016V87.2058C54.2726 88.6225 53.1605 89.8494 51.7028 89.8494H49.088C45.887 89.8494 43.2271 87.235 43.2271 84.1241V76.3249C43.2271 73.2286 45.857 70.7019 49.0128 70.6873V67.5763C49.0128 56.8561 57.9844 48.1367 68.9998 48.1367C80.0152 48.1367 88.9869 56.8415 88.9869 67.5325V70.6873C92.308 70.7019 94.7726 73.2286 94.7726 76.3249Z" fill="white" fill-opacity="0.8"/>
<defs>
<linearGradient id="paint0_linear" x1="69.5" y1="5" x2="69.5" y2="132" gradientUnits="userSpaceOnUse">
<stop stop-color="#F54997"/>
<stop offset="1" stop-color="#3D06FF"/>
</linearGradient>
<linearGradient id="paint1_linear" x1="25.5" y1="0" x2="25.5" y2="51" gradientUnits="userSpaceOnUse">
<stop stop-color="#F54997"/>
<stop offset="1" stop-color="#3D06FF"/>
</linearGradient>
<linearGradient id="paint2_linear" x1="121.5" y1="81" x2="121.5" y2="132" gradientUnits="userSpaceOnUse">
<stop stop-color="#F54997"/>
<stop offset="1" stop-color="#3D06FF"/>
</linearGradient>
<linearGradient id="paint3_linear" x1="132.5" y1="73" x2="132.5" y2="96" gradientUnits="userSpaceOnUse">
<stop stop-color="#F54997"/>
<stop offset="1" stop-color="#3D06FF"/>
</linearGradient>
<linearGradient id="paint4_linear" x1="11.5" y1="35" x2="11.5" y2="58" gradientUnits="userSpaceOnUse">
<stop stop-color="#F54997"/>
<stop offset="1" stop-color="#3D06FF"/>
</linearGradient>
</defs>
</svg>
