<svg width="336" height="189" viewBox="0 0 336 189" fill="none" xmlns="http://www.w3.org/2000/svg">
<rect width="336" height="189" rx="8" fill="white" fill-opacity="0.1"/>
<path d="M155.313 124.088L162.556 120.013V104.447L155.313 108.09V124.088Z" fill="white" fill-opacity="0.25"/>
<path d="M197.202 91.5164C196.798 88.0605 194.826 84.8206 191.557 82.9486L151.901 60.1397C147.811 57.7782 143.074 59.3045 140.755 62.7172C139.819 64.042 139.258 65.6691 139.258 67.4979L139.2 119.596C139.2 125.888 144.298 131 150.59 131H152.621V75.8352L182.385 93.0427L165.235 103.094V118.66L191.744 102.849C195.791 100.444 197.806 95.9082 197.202 91.5164Z" fill="white" fill-opacity="0.25"/>
<path d="M159.014 97.4346C161.424 97.4346 163.378 95.4812 163.378 93.0716C163.378 90.6619 161.424 88.7085 159.014 88.7085C156.605 88.7085 154.651 90.6619 154.651 93.0716C154.651 95.4812 156.605 97.4346 159.014 97.4346Z" fill="white" fill-opacity="0.25"/>
<rect x="10" y="139" width="160" height="40" rx="20" fill="#0D111D" fill-opacity="0.5"/>
<path d="M32 149C26.48 149 22 153.48 22 159C22 164.52 26.48 169 32 169C37.52 169 42 164.52 42 159C42 153.48 37.52 149 32 149ZM31.92 162.06C31.1289 162.653 30 162.089 30 161.1V156.9C30 155.911 31.1289 155.347 31.92 155.94L34.72 158.04C35.36 158.52 35.36 159.48 34.72 159.96L31.92 162.06Z" fill="white"/>
<path d="M51.8945 159.465H52.4922C53.0508 159.465 53.4688 159.355 53.7461 159.137C54.0234 158.914 54.1621 158.592 54.1621 158.17C54.1621 157.744 54.0449 157.43 53.8105 157.227C53.5801 157.023 53.2168 156.922 52.7207 156.922H51.8945V159.465ZM55.9961 158.105C55.9961 159.027 55.707 159.732 55.1289 160.221C54.5547 160.709 53.7363 160.953 52.6738 160.953H51.8945V164H50.0781V155.434H52.8145C53.8535 155.434 54.6426 155.658 55.1816 156.107C55.7246 156.553 55.9961 157.219 55.9961 158.105ZM59.2598 164H57.4727V154.883H59.2598V164ZM65.3008 164L64.9551 163.109H64.9082C64.6074 163.488 64.2969 163.752 63.9766 163.9C63.6602 164.045 63.2461 164.117 62.7344 164.117C62.1055 164.117 61.6094 163.938 61.2461 163.578C60.8867 163.219 60.707 162.707 60.707 162.043C60.707 161.348 60.9492 160.836 61.4336 160.508C61.9219 160.176 62.6562 159.992 63.6367 159.957L64.7734 159.922V159.635C64.7734 158.971 64.4336 158.639 63.7539 158.639C63.2305 158.639 62.6152 158.797 61.9082 159.113L61.3164 157.906C62.0703 157.512 62.9062 157.314 63.8242 157.314C64.7031 157.314 65.377 157.506 65.8457 157.889C66.3145 158.271 66.5488 158.854 66.5488 159.635V164H65.3008ZM64.7734 160.965L64.082 160.988C63.5625 161.004 63.1758 161.098 62.9219 161.27C62.668 161.441 62.541 161.703 62.541 162.055C62.541 162.559 62.8301 162.811 63.4082 162.811C63.8223 162.811 64.1523 162.691 64.3984 162.453C64.6484 162.215 64.7734 161.898 64.7734 161.504V160.965ZM67.457 157.449H69.4141L70.6504 161.135C70.7559 161.455 70.8281 161.834 70.8672 162.271H70.9023C70.9453 161.869 71.0293 161.49 71.1543 161.135L72.3672 157.449H74.2832L71.5117 164.838C71.2578 165.521 70.8945 166.033 70.4219 166.373C69.9531 166.713 69.4043 166.883 68.7754 166.883C68.4668 166.883 68.1641 166.85 67.8672 166.783V165.365C68.082 165.416 68.3164 165.441 68.5703 165.441C68.8867 165.441 69.1621 165.344 69.3965 165.148C69.6348 164.957 69.8203 164.666 69.9531 164.275L70.0586 163.953L67.457 157.449ZM81.1035 162.693C81.416 162.693 81.791 162.625 82.2285 162.488V163.818C81.7832 164.018 81.2363 164.117 80.5879 164.117C79.873 164.117 79.3516 163.938 79.0234 163.578C78.6992 163.215 78.5371 162.672 78.5371 161.949V158.791H77.6816V158.035L78.666 157.438L79.1816 156.055H80.3242V157.449H82.1582V158.791H80.3242V161.949C80.3242 162.203 80.3945 162.391 80.5352 162.512C80.6797 162.633 80.8691 162.693 81.1035 162.693ZM89.6055 164H87.8184V160.174C87.8184 159.229 87.4668 158.756 86.7637 158.756C86.2637 158.756 85.9023 158.926 85.6797 159.266C85.457 159.605 85.3457 160.156 85.3457 160.918V164H83.5586V154.883H85.3457V156.74C85.3457 156.885 85.332 157.225 85.3047 157.76L85.2637 158.287H85.3574C85.7559 157.646 86.3887 157.326 87.2559 157.326C88.0254 157.326 88.6094 157.533 89.0078 157.947C89.4062 158.361 89.6055 158.955 89.6055 159.729V164ZM91.3691 155.756C91.3691 155.174 91.6934 154.883 92.3418 154.883C92.9902 154.883 93.3145 155.174 93.3145 155.756C93.3145 156.033 93.2324 156.25 93.0684 156.406C92.9082 156.559 92.666 156.635 92.3418 156.635C91.6934 156.635 91.3691 156.342 91.3691 155.756ZM93.2324 164H91.4453V157.449H93.2324V164ZM99.6836 162.055C99.6836 162.727 99.4492 163.238 98.9805 163.59C98.5156 163.941 97.8184 164.117 96.8887 164.117C96.4121 164.117 96.0059 164.084 95.6699 164.018C95.334 163.955 95.0195 163.861 94.7266 163.736V162.26C95.0586 162.416 95.4316 162.547 95.8457 162.652C96.2637 162.758 96.6309 162.811 96.9473 162.811C97.5957 162.811 97.9199 162.623 97.9199 162.248C97.9199 162.107 97.877 161.994 97.791 161.908C97.7051 161.818 97.5566 161.719 97.3457 161.609C97.1348 161.496 96.8535 161.365 96.502 161.217C95.998 161.006 95.627 160.811 95.3887 160.631C95.1543 160.451 94.9824 160.246 94.873 160.016C94.7676 159.781 94.7148 159.494 94.7148 159.154C94.7148 158.572 94.9395 158.123 95.3887 157.807C95.8418 157.486 96.4824 157.326 97.3105 157.326C98.0996 157.326 98.8672 157.498 99.6133 157.842L99.0742 159.131C98.7461 158.99 98.4395 158.875 98.1543 158.785C97.8691 158.695 97.5781 158.65 97.2812 158.65C96.7539 158.65 96.4902 158.793 96.4902 159.078C96.4902 159.238 96.5742 159.377 96.7422 159.494C96.9141 159.611 97.2871 159.785 97.8613 160.016C98.373 160.223 98.748 160.416 98.9863 160.596C99.2246 160.775 99.4004 160.982 99.5137 161.217C99.627 161.451 99.6836 161.73 99.6836 162.055ZM110.061 164H108.273V160.174C108.273 159.701 108.193 159.348 108.033 159.113C107.877 158.875 107.629 158.756 107.289 158.756C106.832 158.756 106.5 158.924 106.293 159.26C106.086 159.596 105.982 160.148 105.982 160.918V164H104.195V157.449H105.561L105.801 158.287H105.9C106.076 157.986 106.33 157.752 106.662 157.584C106.994 157.412 107.375 157.326 107.805 157.326C108.785 157.326 109.449 157.646 109.797 158.287H109.955C110.131 157.982 110.389 157.746 110.729 157.578C111.072 157.41 111.459 157.326 111.889 157.326C112.631 157.326 113.191 157.518 113.57 157.9C113.953 158.279 114.145 158.889 114.145 159.729V164H112.352V160.174C112.352 159.701 112.271 159.348 112.111 159.113C111.955 158.875 111.707 158.756 111.367 158.756C110.93 158.756 110.602 158.912 110.383 159.225C110.168 159.537 110.061 160.033 110.061 160.713V164ZM117.408 160.713C117.408 161.361 117.514 161.852 117.725 162.184C117.939 162.516 118.287 162.682 118.768 162.682C119.244 162.682 119.586 162.518 119.793 162.189C120.004 161.857 120.109 161.365 120.109 160.713C120.109 160.064 120.004 159.578 119.793 159.254C119.582 158.93 119.236 158.768 118.756 158.768C118.279 158.768 117.936 158.93 117.725 159.254C117.514 159.574 117.408 160.061 117.408 160.713ZM121.938 160.713C121.938 161.779 121.656 162.613 121.094 163.215C120.531 163.816 119.748 164.117 118.744 164.117C118.115 164.117 117.561 163.98 117.08 163.707C116.6 163.43 116.23 163.033 115.973 162.518C115.715 162.002 115.586 161.4 115.586 160.713C115.586 159.643 115.865 158.811 116.424 158.217C116.982 157.623 117.768 157.326 118.779 157.326C119.408 157.326 119.963 157.463 120.443 157.736C120.924 158.01 121.293 158.402 121.551 158.914C121.809 159.426 121.938 160.025 121.938 160.713ZM124.855 164L122.359 157.449H124.229L125.494 161.182C125.623 161.588 125.707 162.035 125.746 162.523H125.793C125.816 162.082 125.904 161.635 126.057 161.182L127.316 157.449H129.186L126.689 164H124.855ZM130.053 155.756C130.053 155.174 130.377 154.883 131.025 154.883C131.674 154.883 131.998 155.174 131.998 155.756C131.998 156.033 131.916 156.25 131.752 156.406C131.592 156.559 131.35 156.635 131.025 156.635C130.377 156.635 130.053 156.342 130.053 155.756ZM131.916 164H130.129V157.449H131.916V164ZM136.51 158.598C136.131 158.598 135.834 158.719 135.619 158.961C135.404 159.199 135.281 159.539 135.25 159.98H137.758C137.75 159.539 137.635 159.199 137.412 158.961C137.189 158.719 136.889 158.598 136.51 158.598ZM136.762 164.117C135.707 164.117 134.883 163.826 134.289 163.244C133.695 162.662 133.398 161.838 133.398 160.771C133.398 159.674 133.672 158.826 134.219 158.229C134.77 157.627 135.529 157.326 136.498 157.326C137.424 157.326 138.145 157.59 138.66 158.117C139.176 158.645 139.434 159.373 139.434 160.303V161.17H135.209C135.229 161.678 135.379 162.074 135.66 162.359C135.941 162.645 136.336 162.787 136.844 162.787C137.238 162.787 137.611 162.746 137.963 162.664C138.314 162.582 138.682 162.451 139.064 162.271V163.654C138.752 163.811 138.418 163.926 138.062 164C137.707 164.078 137.273 164.117 136.762 164.117Z" fill="white"/>
</svg>
