<svg width="145" height="145" viewBox="0 0 145 145" fill="none" xmlns="http://www.w3.org/2000/svg">
<circle cx="72.5" cy="72.5" r="72.5" fill="white" fill-opacity="0.05"/>
<g clip-path="url(#clip0_646_24266)">
<path d="M94.1948 34.6672C93.2065 33.7776 91.6251 33.7776 90.6861 34.6672L72.5001 50.9901L54.3634 34.6672C53.3751 33.7776 51.7937 33.7776 50.8547 34.6672C49.9157 35.5567 49.8663 36.9799 50.8547 37.825L70.7704 55.7491C71.2646 56.1939 71.907 56.4163 72.5495 56.4163C73.1919 56.4163 73.8344 56.1939 74.3285 55.7491L94.2442 37.825C95.1832 36.9355 95.1832 35.5122 94.1948 34.6672Z" fill="url(#paint0_linear_646_24266)"/>
<path d="M74.2791 55.7491L94.1948 37.825C95.1831 36.9355 95.1831 35.5122 94.1948 34.6672C93.2064 33.7776 91.625 33.7776 90.686 34.6672L72.5 50.9901V56.4163C73.1424 56.4163 73.7849 56.1939 74.2791 55.7491Z" fill="url(#paint1_linear_646_24266)"/>
<path d="M107.538 110.5H37.4622C33.3605 110.5 30 107.476 30 103.784V58.6401C30 54.9485 33.3605 51.9241 37.4622 51.9241H107.538C111.64 51.9241 115 54.9485 115 58.6401V103.784C115 107.476 111.64 110.5 107.538 110.5Z" fill="url(#paint2_linear_646_24266)"/>
<g opacity="0.1">
<path opacity="0.1" d="M83.2237 75.5857L62.2208 94.3994C62.2208 94.3994 62.1714 96.4008 64.0987 97.2903L82.7295 110.455H107.538C111.639 110.455 115 107.431 115 103.739V95.9116L83.2237 75.5857Z" fill="black"/>
</g>
<path d="M64.0986 97.3349C62.962 96.7567 62.2207 95.6448 62.2207 94.4439V68.0248C62.2207 66.8239 62.962 65.6675 64.0986 65.1338C65.2352 64.5556 66.6684 64.6445 67.7556 65.3117L89.1044 78.5213C90.0928 79.1439 90.6858 80.1669 90.6858 81.2788C90.6858 82.3907 90.0928 83.4137 89.1044 84.0364L67.7556 97.157C66.6684 97.8242 65.2352 97.9131 64.0986 97.3349Z" fill="url(#paint3_linear_646_24266)"/>
</g>
<defs>
<linearGradient id="paint0_linear_646_24266" x1="50.0913" y1="45.2081" x2="94.9231" y2="45.2081" gradientUnits="userSpaceOnUse">
<stop stop-color="#FDBF00"/>
<stop offset="1" stop-color="#FF9100"/>
</linearGradient>
<linearGradient id="paint1_linear_646_24266" x1="72.5071" y1="45.208" x2="94.9229" y2="45.208" gradientUnits="userSpaceOnUse">
<stop stop-color="#FDBF00"/>
<stop offset="1" stop-color="#FF9100"/>
</linearGradient>
<linearGradient id="paint2_linear_646_24266" x1="37.2426" y1="49.3737" x2="100.345" y2="119.733" gradientUnits="userSpaceOnUse">
<stop stop-color="#F54997"/>
<stop offset="0.1751" stop-color="#C437B3"/>
<stop offset="0.3717" stop-color="#9426CE"/>
<stop offset="0.5589" stop-color="#6E18E3"/>
<stop offset="0.7312" stop-color="#530EF2"/>
<stop offset="0.8836" stop-color="#4308FC"/>
<stop offset="1" stop-color="#3D06FF"/>
</linearGradient>
<linearGradient id="paint3_linear_646_24266" x1="57.5923" y1="70.7821" x2="78.2323" y2="93.7957" gradientUnits="userSpaceOnUse">
<stop stop-color="#FDBF00"/>
<stop offset="1" stop-color="#FF9100"/>
</linearGradient>
<clipPath id="clip0_646_24266">
<rect width="85" height="76.5" fill="white" transform="translate(30 34)"/>
</clipPath>
</defs>
</svg>
