<svg width="345" height="200" viewBox="0 0 345 200" fill="none" xmlns="http://www.w3.org/2000/svg">
<g clip-path="url(#clip0)">
<path d="M0 24C0 10.7452 10.7452 0 24 0H321C334.255 0 345 10.7452 345 24V200H0V24Z" fill="#FFFDF5"/>
<g clip-path="url(#clip1)">
<path d="M49.9313 56.0549C19.7198 63.1361 -11.7704 75.548 -26.2367 99.6558C-41.9818 125.991 -31.9113 159.647 -9.61241 182.163C12.6865 204.68 44.896 217.808 77.1055 227.674C116.828 239.847 158.149 247.883 200.029 251.781C228.003 254.327 256.536 255.043 284.03 250.111C311.604 245.178 338.298 234.277 357.4 216.376C401.199 175.4 383.695 122.331 333.982 93.052C274.359 57.8849 190.438 42.37 119.306 46.2686C95.8878 47.462 72.5498 50.7241 49.9313 56.0549Z" fill="#DAF5FF"/>
<path d="M-12.4745 65.0269C-16.6305 70.0394 -18.8684 75.768 -17.2699 81.2579C-15.9112 85.9522 -11.6752 90.0099 -6.71992 90.3282C-2.48393 90.6464 1.43237 88.4186 5.02896 86.1909C12.9415 81.1784 29.2461 73.222 27.168 61.7648C23.8112 43.7039 -1.36499 51.5807 -12.4745 65.0269Z" fill="#E2AFFF"/>
<path d="M142.796 19.3776C140.878 18.6616 138.8 18.582 136.722 19.4572C133.605 20.8098 131.367 24.1514 131.527 27.5727C131.686 31.7895 135.603 35.529 139.919 35.529C144.155 35.529 148.151 31.8691 148.311 27.5727C148.55 23.7536 146.073 20.5711 142.796 19.3776Z" fill="#86C1FD"/>
<path d="M29.9655 36.3295C29.1662 36.0113 28.2071 36.0113 27.328 36.3295C25.9693 36.8865 25.0102 38.3982 25.0901 39.8303C25.17 41.6603 26.8484 43.3311 28.7666 43.3311C30.6049 43.3311 32.3632 41.7398 32.4431 39.9099C32.5231 38.239 31.4041 36.8865 29.9655 36.3295Z" fill="#FEC92E"/>
<path d="M337.819 79.0487C366.112 92.8132 387.292 120.104 393.526 150.815" stroke="#DAF5FF" stroke-width="13.8784" stroke-miterlimit="10" stroke-linecap="round"/>
<path opacity="0.2" d="M203.066 180.253C110.674 173.013 24.4353 191.472 35.1452 235.391C44.9759 275.491 177.89 288.778 262.13 286.312C353.084 283.607 372.346 249.474 369.149 233.72C365.952 217.887 349.807 191.79 203.066 180.253Z" fill="#0073CD"/>
<path d="M203.706 176.832C111.313 169.592 25.0747 188.051 35.7846 231.97C45.6153 272.07 178.53 285.357 262.77 282.891C353.724 280.185 372.986 246.053 369.789 230.299C366.592 214.466 350.447 188.369 203.706 176.832Z" fill="#00BD85"/>
<path d="M71.1912 194.655C73.001 194.655 74.4681 194.334 74.4681 193.938C74.4681 193.543 73.001 193.222 71.1912 193.222C69.3814 193.222 67.9143 193.543 67.9143 193.938C67.9143 194.334 69.3814 194.655 71.1912 194.655Z" fill="#13C28E"/>
<path d="M71.9103 202.452C65.5963 207.305 59.602 214.386 60.3213 222.422C61.2804 232.766 72.4698 238.494 82.1406 241.915C136.649 261.329 194.754 270.32 252.459 268.251C264.688 267.853 276.916 266.898 288.905 264.83C296.178 263.636 303.371 261.965 310.564 260.374C319.916 258.226 329.586 255.998 337.419 250.27C345.172 244.541 350.607 234.357 347.889 225.048C343.014 208.34 312.802 203.486 298.496 200.144C259.253 191.074 219.051 186.062 178.849 185.107C144.961 184.311 100.523 180.492 71.9103 202.452Z" stroke="#50D2AB" stroke-width="4.193" stroke-miterlimit="10" stroke-linecap="round"/>
<path opacity="0.2" d="M148.878 195.211C116.029 198.314 94.7688 212.397 117.307 225.127C150.076 243.666 263.249 239.608 297.857 234.675C334.462 229.424 367.711 218.364 345.172 206.907C322.633 195.45 181.966 192.029 148.878 195.211Z" fill="#0073CD"/>
<path d="M151.515 138.881C151.515 138.881 140.326 66.2389 144.642 62.1812C149.037 58.1234 193.236 46.1093 247.025 45.075C300.814 44.0407 351.726 61.8629 355.642 65.5228C359.558 69.1828 348.769 146.678 348.769 146.678L151.515 138.881Z" fill="#3999FC"/>
<path d="M348.928 145.325C350.287 135.459 358.12 76.98 356.122 66.955C348.769 73.3996 335.581 119.626 336.7 142.222C336.78 143.972 337.02 145.325 337.499 146.359L346.93 146.757C347.57 146.28 348.209 145.882 348.928 145.325Z" fill="#1D8AE1"/>
<path d="M162.145 110.795C159.987 83.0269 145.041 60.7491 144.002 64.1703L143.762 65.1251C142.803 74.6727 146.48 103.952 149.117 122.57C156.391 125.196 163.184 124.161 162.145 110.795Z" fill="#1D8AE1"/>
<path d="M146.879 198.394L145.76 208.18L149.277 209.692L154.392 201.895L146.879 198.394Z" fill="#002538"/>
<path d="M144.002 159.647C138.487 178.901 139.846 196.166 142.164 199.508C144.482 202.85 205.064 224.332 245.746 225.764C286.427 227.276 342.774 209.772 347.09 205.475C351.486 201.179 350.447 166.171 350.447 166.171L144.002 159.647Z" fill="#1D8AE1"/>
<path d="M349.328 198.633C319.356 210.885 286.987 217.33 254.298 217.489C253.898 217.489 253.499 217.489 253.099 217.489C213.856 217.489 175.093 208.419 140.326 191.233C140.326 191.552 140.406 191.87 140.406 192.188C175.173 209.294 213.936 218.364 253.099 218.364C253.499 218.364 253.898 218.364 254.298 218.364C286.987 218.205 319.276 211.84 349.168 199.667C349.248 199.269 349.328 198.951 349.328 198.633Z" fill="#3999FC"/>
<path d="M148.878 158.055C149.117 167.921 197.072 183.675 256.855 185.107C316.639 186.539 338.218 172.456 344.852 166.569C351.486 160.76 342.534 143.495 302.093 135.38C227.683 120.422 148.238 130.367 148.878 158.055Z" fill="#57A8FF"/>
<path d="M323.512 167.762C323.672 163.704 332.943 139.358 337.979 132.356C343.014 125.355 356.681 125.196 359.878 138.005C363.075 150.815 351.646 174.525 351.646 174.525L323.512 167.762Z" fill="#3999FC"/>
<path opacity="0.2" d="M353.724 149.94C349.967 144.37 343.813 140.631 337.179 139.676C336.38 139.597 335.181 139.437 333.983 139.437C333.023 141.426 332.064 143.654 331.105 145.882C331.745 146.519 332.384 146.996 333.103 147.314C336.78 148.985 340.376 149.622 343.653 152.168C348.209 155.748 351.406 160.999 352.365 166.728C352.605 167.921 352.685 169.115 353.324 170.149C353.404 170.229 353.484 170.308 353.484 170.388C354.603 167.682 356.122 163.863 357.48 159.567C356.921 156.066 355.722 152.804 353.724 149.94Z" fill="#4FB3D3"/>
<path d="M323.512 167.762C323.113 172.934 326.39 178.026 331.025 180.333C335.661 182.64 341.495 182.163 345.971 179.617C349.488 177.628 352.205 175.002 353.005 170.149C353.804 165.216 351.006 160.044 346.611 157.578C338.538 152.884 324.312 157.339 323.512 167.762Z" fill="#1D8AE1"/>
<path d="M145.201 124.241C148.318 120.661 151.915 117.239 156.391 115.648C160.866 114.057 166.461 114.693 169.658 118.194C171.736 120.501 172.535 123.604 172.455 126.707C172.375 129.731 171.496 132.754 170.377 135.618C166.701 145.246 161.026 156.066 153.673 163.386C151.595 165.455 149.118 165.614 146.16 166.091C139.686 167.126 131.454 162.272 129.296 156.862C126.978 150.974 134.571 139.835 137.528 134.902C139.766 131.163 142.324 127.583 145.201 124.241Z" fill="#3999FC"/>
<path d="M138.647 167.285C144.402 168.637 150.956 166.728 154.552 162.352C162.065 153.202 151.835 138.562 139.447 142.063C126.099 145.882 124.101 163.863 138.647 167.285Z" fill="#1D8AE1"/>
<path d="M176.052 58.5212C186.282 78.0939 190.438 100.77 187.881 122.729" stroke="#70B5FF" stroke-miterlimit="10" stroke-linecap="round" stroke-linejoin="round"/>
<path d="M206.903 54.7021C215.055 75.3887 217.532 98.303 214.016 120.183" stroke="#70B5FF" stroke-miterlimit="10" stroke-linecap="round" stroke-linejoin="round"/>
<path d="M235.515 53.6678C241.989 75.5478 244.387 98.6213 242.389 121.376" stroke="#70B5FF" stroke-miterlimit="10" stroke-linecap="round" stroke-linejoin="round"/>
<path d="M314.081 132.595C312.563 108.328 318.397 83.7429 330.626 62.6586" stroke="#70B5FF" stroke-miterlimit="10" stroke-linecap="round" stroke-linejoin="round"/>
<path d="M290.504 127.423C290.264 103.475 294.34 79.526 302.492 56.9299" stroke="#70B5FF" stroke-miterlimit="10" stroke-linecap="round" stroke-linejoin="round"/>
<path d="M269.883 124.877C269.803 101.167 269.803 77.537 269.723 53.827" stroke="#70B5FF" stroke-miterlimit="10" stroke-linecap="round" stroke-linejoin="round"/>
<path d="M165.582 116.205C168.619 117.637 170.617 120.74 171.336 124.002C172.056 127.264 171.656 130.685 170.857 133.948" stroke="#70B5FF" stroke-miterlimit="10" stroke-linecap="round" stroke-linejoin="round"/>
<path d="M144.082 167.285C146.879 167.364 149.757 166.25 151.835 164.42" stroke="#3999FC" stroke-miterlimit="10" stroke-linecap="round" stroke-linejoin="round"/>
<path d="M328.308 179.14C334.142 182.64 342.055 182.163 347.41 178.026" stroke="#3999FC" stroke-miterlimit="10" stroke-linecap="round" stroke-linejoin="round"/>
<path opacity="0.3" d="M230.72 128.458C253.099 128.299 277.876 130.526 302.093 135.38C302.252 135.38 302.332 135.459 302.492 135.459C302.732 135.38 302.892 135.3 303.132 135.141C308.087 132.515 309.366 126.309 310.165 120.82C314.161 129.969 321.674 137.528 330.865 141.586C333.583 142.779 336.38 143.654 339.178 144.529L345.891 146.678H346.531C337.179 126.548 327.748 106.419 318.397 86.2889C316.639 82.5494 314.881 78.7304 311.763 75.9457C307.927 72.5244 302.173 70.8536 299.855 66.2389C298.816 64.1703 298.656 61.8629 298.256 59.5556C297.537 55.0204 294.82 50.8831 289.944 50.4853C272.521 49.2123 253.099 59.2373 242.309 72.3653C234.557 81.7538 230.001 93.2905 225.525 104.589C223.607 109.521 221.609 114.852 223.127 119.944C224.246 123.684 227.204 126.628 230.72 128.458Z" fill="#4FB3D3"/>
<path opacity="0.2" d="M263.326 180.107C265.084 180.107 266.842 180.107 268.521 180.027C274.915 176.924 286.584 170.719 293.777 164.274C304.007 155.044 306.405 141.519 299.931 135.154L236.551 123.458C234.313 123.378 232.075 123.378 229.917 123.378C220.566 125.447 190.914 132.369 188.596 136.506C185.879 141.439 194.031 144.542 194.031 144.542L172.771 168.491C186.039 172.469 203.382 175.89 223.044 178.038L230.237 173.344L256.452 159.898L263.326 180.107Z" fill="#4FB3D3"/>
<path d="M267.322 40.4729C263.565 39.359 259.649 38.3247 255.733 38.4838C251.816 38.6429 247.74 40.2342 245.582 43.4963C243.185 47.1562 243.664 51.8505 242.225 55.9878C241.106 59.2499 238.709 62.1142 235.672 63.7054C233.674 64.8193 231.356 65.4558 229.358 66.6493C227.359 67.8427 225.681 69.9114 225.921 72.2187C226.001 73.4122 226.64 74.5261 227.359 75.4809C228.079 76.5152 228.798 77.4699 229.278 78.5838C229.757 79.6977 229.837 81.0503 229.198 82.0846C228.558 83.119 227.04 83.6759 226.081 82.9598C227.2 84.7898 229.597 85.9037 231.675 85.1876C232.794 88.2906 235.032 90.9958 238.229 91.7118C243.904 92.9053 249.499 88.9271 255.253 88.6088C257.811 88.4497 260.448 89.0862 263.006 88.6884C267.242 88.1315 270.918 85.1081 273.156 81.4481C275.474 77.7882 276.593 73.6509 277.712 69.5136C279.15 64.2624 280.589 58.6929 279.23 53.4417C277.872 47.7132 272.996 42.1437 267.322 40.4729Z" fill="#002538"/>
<path d="M250.058 76.9925C244.703 78.2655 233.194 84.7897 230.237 92.9052C227.12 101.498 227.759 109.773 226.161 116.456C222.564 131.891 219.687 140.882 219.687 140.882L259.809 124.731L262.446 76.1173L250.058 76.9925Z" fill="white"/>
<path opacity="0.2" d="M249.498 94.0192C243.344 96.5652 235.672 99.2704 235.672 99.2704C235.672 99.2704 232.555 112.637 225.042 121.389C222.564 131.573 220.566 138.097 219.927 140.166C220.086 140.325 220.246 140.405 220.406 140.564L259.809 124.651L261.167 100.146C257.091 98.4747 253.175 96.5652 249.498 94.0192Z" fill="#C2BED4"/>
<path d="M197.867 145.019C195.55 143.985 190.355 149.952 189.076 147.168C187.477 143.587 196.908 145.258 196.908 142.951C196.908 140.643 198.347 132.926 201.784 127.595C205.22 122.264 211.375 117.57 212.094 115.581C212.733 113.592 206.1 107.306 210.416 105.397C214.731 103.487 212.973 112.001 215.77 112.955C218.568 113.91 227.2 113.512 235.672 116.934C244.064 120.355 248.3 124.015 249.419 125.288C250.618 126.561 257.971 121.469 257.811 126.083C257.651 130.618 250.937 126.242 249.658 127.675C248.38 129.107 247.66 134.597 243.105 143.746C238.549 152.896 231.915 155.442 232.315 156.795C232.714 158.068 234.393 160.455 232.395 161.807C230.397 163.16 232.075 157.829 230.317 156.477C228.558 155.124 218.168 155.761 209.936 152.339C201.704 148.839 201.864 146.849 197.867 145.019Z" fill="#86B6F8"/>
<path d="M200.425 146.531C203.542 135.233 210.975 122.105 220.246 113.592C219.847 113.512 219.527 113.512 219.127 113.512C209.936 122.105 202.823 134.915 199.706 146.054C199.946 146.213 200.185 146.372 200.425 146.531Z" fill="#B9D5FB"/>
<path d="M247.101 123.299C238.869 132.846 232.395 143.906 228.079 155.761C228.399 155.84 228.638 155.84 228.878 155.92C233.194 144.224 239.588 133.244 247.74 123.776C247.58 123.617 247.341 123.458 247.101 123.299Z" fill="#B9D5FB"/>
<path d="M226.161 114.388C225.841 114.308 225.521 114.308 225.202 114.228C216.89 123.776 209.537 137.7 206.18 150.589C206.419 150.748 206.659 150.828 206.899 150.987C210.336 138.018 217.769 123.935 226.161 114.388Z" fill="#B9D5FB"/>
<path d="M232.235 116.615C232.475 116.377 232.635 116.138 232.874 115.899C232.555 115.82 232.315 115.74 231.995 115.661C231.835 115.82 231.755 115.899 231.596 116.058C222.085 126.402 215.291 139.37 212.094 153.055C212.334 153.135 212.574 153.215 212.893 153.294C216.09 139.768 222.804 126.879 232.235 116.615Z" fill="#B9D5FB"/>
<path d="M243.584 120.832C243.344 120.673 243.105 120.593 242.865 120.434C233.594 131.016 227.2 143.11 224.323 155.283C224.562 155.283 224.882 155.363 225.122 155.363C227.919 143.269 234.313 131.335 243.584 120.832Z" fill="#B9D5FB"/>
<path d="M222.964 140.405C226.161 132.767 230.796 125.208 236.871 117.411C236.631 117.331 236.391 117.172 236.071 117.093C229.997 124.89 225.361 132.448 222.165 140.087C221.205 142.394 218.888 148.918 217.449 154.328C217.689 154.408 218.008 154.408 218.248 154.488C219.767 149.157 222.005 142.712 222.964 140.405Z" fill="#B9D5FB"/>
<path d="M209.935 169.605C209.935 169.605 206.178 174.14 205.779 175.811C205.379 177.481 207.937 192.042 204.42 193.156C200.903 194.269 196.348 174.776 196.028 172.071C195.708 169.366 203.141 163.08 203.141 163.08L209.935 169.605Z" fill="#FDF5EB"/>
<path d="M198.347 167.775C198.986 168.809 199.386 170.082 199.546 171.037C199.865 172.787 199.546 174.697 198.427 176.129C198.027 176.606 197.628 176.924 197.068 177.243C196.429 174.776 196.029 172.787 195.949 172.071C195.949 170.957 196.988 169.366 198.347 167.775Z" fill="#FDCDD0"/>
<path d="M200.505 187.984C202.343 187.109 204.261 186.552 206.259 186.233C206.259 189.655 205.94 192.678 204.421 193.155C203.142 193.553 201.784 191.246 200.505 187.984Z" fill="#FDCDD0"/>
<path opacity="0.2" d="M199.786 166.263L203.382 172.787L200.185 187.347C201.544 190.928 203.063 193.633 204.421 193.155C207.938 192.042 205.38 177.481 205.78 175.811C206.18 174.14 209.936 169.605 209.936 169.605L203.142 163.08C203.142 163.08 201.464 164.513 199.786 166.263Z" fill="#CA666A"/>
<path d="M262.446 120.991C276.034 129.902 254.054 152.658 208.737 170.321L199.946 162.842C199.946 162.921 245.582 109.932 262.446 120.991Z" fill="#FF82A7"/>
<path opacity="0.2" d="M262.446 120.991C262.366 120.991 262.366 120.912 262.286 120.912C258.77 123.219 254.853 125.128 250.777 126.481C246.222 127.913 240.867 129.504 235.991 128.868C218.248 141.598 199.865 162.921 199.865 162.921L208.657 170.4C254.054 152.658 276.033 129.902 262.446 120.991Z" fill="#CA666A"/>
<path d="M344.848 146.531C346.287 147.804 345.808 148.839 347.246 151.305C348.685 153.771 350.203 156.477 351.322 156.158C351.322 156.158 351.083 162.205 351.802 162.603C352.601 163.001 353.32 159.341 353.32 159.341C353.32 159.341 354.28 160.534 355.319 155.283C355.319 155.283 356.278 154.726 356.358 153.374C356.358 153.374 357.956 152.26 356.677 148.998C355.398 145.736 352.201 143.667 347.566 139.689C342.85 135.711 344.848 146.531 344.848 146.531Z" fill="#FFB2A5"/>
<path d="M271.957 61.4776C266.602 63.8645 263.645 67.5245 262.446 68.7975C261.327 70.0705 259.809 124.651 259.809 124.651L302.249 130.937L304.886 100.066C304.886 100.066 313.518 122.423 314.957 125.129C316.395 127.834 344.209 150.032 344.209 150.032L354.12 141.121L329.823 118.047C329.823 118.047 313.678 73.9691 311.2 70.9457C308.802 67.8427 290.979 60.6024 290.979 60.6024L271.957 61.4776Z" fill="#E2AFFF"/>
<path opacity="0.2" d="M260.049 117.49C263.485 120.036 270.918 125.129 275.554 124.572C282.347 123.776 301.29 82.9598 301.29 82.9598L260.128 114.547C260.128 115.581 260.049 116.615 260.049 117.49Z" fill="#00426F"/>
<path d="M275.794 57.9768L274.914 58.2155C271.957 59.0111 270.359 62.1937 271.318 65.058C272.437 68.2405 273.795 71.5822 274.595 71.6618C276.113 71.8209 281.468 63.9441 281.468 63.9441C281.468 63.9441 287.702 71.9004 289.141 71.3435C289.94 71.0252 291.299 67.3653 292.338 64.1828C293.217 61.5572 291.858 58.6133 289.221 57.6586L275.794 57.9768Z" fill="white"/>
<path d="M260.368 80.8912L266.043 66.0924C266.043 66.0924 271.718 69.2749 273.076 64.5011C274.355 60.2047 269.64 59.0112 266.922 60.6025C266.922 60.6025 273.955 46.1219 260.848 42.3824C247.74 38.6429 244.304 56.7039 243.424 61.0799C241.906 68.7975 246.781 73.5714 250.698 74.6853L249.499 79.3795C249.499 79.3795 248.38 83.4372 252.296 84.392C257.411 85.5059 260.368 80.8912 260.368 80.8912Z" fill="#FFB2A5"/>
<path d="M260.368 47.7131C260.368 47.7131 252.616 55.9877 244.543 56.0673C246.461 49.384 250.777 39.9159 260.288 42.1437L268.041 50.3387L265.723 55.1125C261.647 52.4869 260.368 47.7131 260.368 47.7131Z" fill="#C76470"/>
<path d="M259.245 64.712C260.385 64.5829 261.204 63.558 261.075 62.4229C260.945 61.2877 259.915 60.4721 258.775 60.6012C257.635 60.7303 256.816 61.7552 256.945 62.8904C257.075 64.0255 258.104 64.8411 259.245 64.712Z" fill="#FF9F99"/>
<path d="M257.37 57.0935C257.406 56.3033 256.791 55.6341 255.997 55.5987C255.204 55.5634 254.531 56.1753 254.496 56.9654C254.46 57.7556 255.075 58.4248 255.869 58.4601C256.663 58.4955 257.335 57.8836 257.37 57.0935Z" fill="#002538"/>
<path d="M251.334 56.643C251.37 55.8529 250.755 55.1837 249.962 55.1483C249.168 55.1129 248.496 55.7248 248.46 56.515C248.425 57.3051 249.039 57.9743 249.833 58.0097C250.627 58.0451 251.299 57.4332 251.334 56.643Z" fill="#002538"/>
<path d="M254.933 63.4668C253.974 64.1829 252.695 64.4216 251.497 64.2624" stroke="#002538" stroke-width="0.6315" stroke-miterlimit="10" stroke-linecap="round" stroke-linejoin="round"/>
<path d="M271.238 62.5119C270.599 62.0346 269.719 61.955 269 62.1937C268.281 62.4324 267.641 63.0689 267.481 63.8645" stroke="#002538" stroke-width="0.6315" stroke-miterlimit="10" stroke-linecap="round" stroke-linejoin="round"/>
<path d="M268.68 62.4324C268.92 62.8302 269.08 63.3076 269.32 63.7054" stroke="#002538" stroke-width="0.6315" stroke-miterlimit="10" stroke-linecap="round" stroke-linejoin="round"/>
<path d="M261.647 53.1235C260.448 52.0096 258.69 51.6118 257.171 52.0891" stroke="#002538" stroke-width="0.6315" stroke-miterlimit="10" stroke-linecap="round" stroke-linejoin="round"/>
<path d="M253.495 52.5666C252.616 51.2935 250.618 50.8957 249.259 51.6914" stroke="#002538" stroke-width="0.6315" stroke-miterlimit="10" stroke-linecap="round" stroke-linejoin="round"/>
<path d="M250.697 74.6852C253.255 75.64 258.85 74.1283 258.85 74.1283C258.85 74.1283 255.013 77.2313 250.058 76.9926L250.697 74.6852Z" fill="#C76470"/>
<path d="M246.86 63.0393C248 62.9102 248.819 61.8853 248.69 60.7501C248.56 59.615 247.53 58.7994 246.39 58.9285C245.25 59.0576 244.431 60.0825 244.56 61.2176C244.69 62.3528 245.719 63.1684 246.86 63.0393Z" fill="#FF9F99"/>
<path d="M266.922 60.5229C265.963 61.2389 264.045 67.6836 263.565 66.9675C263.006 66.2515 265.803 55.1126 265.803 55.1126C265.803 55.1126 261.008 50.3387 261.168 45.9627C261.008 45.724 253.894 55.1921 244.463 53.5213C244.463 53.5213 249.658 36.3355 262.686 40.8707C275.714 45.4058 272.117 56.863 272.117 56.863L266.922 60.5229Z" fill="#002538"/>
<path d="M252.855 57.2609C252.855 57.2609 250.218 59.4887 250.538 60.4434C250.697 60.7617 251.896 60.7617 251.896 60.7617" stroke="#002538" stroke-width="0.6315" stroke-miterlimit="10" stroke-linecap="round" stroke-linejoin="round"/>
<g opacity="0.53">
<g opacity="0.53">
<path opacity="0.53" d="M238.309 73.7304C240.387 74.2078 242.226 73.5713 244.064 72.537C244.304 72.3779 244.064 71.98 243.824 72.1392C242.066 73.0939 240.387 73.81 238.309 73.5713C238.229 73.5713 238.229 73.7304 238.309 73.7304Z" fill="#001D3A"/>
</g>
</g>
<path d="M270.599 47.0766C272.197 46.281 274.115 46.1218 275.794 46.7584C277.472 47.3949 278.831 48.827 279.47 50.4978C275.394 51.0548 272.357 50.7365 270.599 47.0766Z" fill="#0D3049"/>
<path d="M168.375 176.924C168.375 176.924 163.66 180.505 162.861 182.016C162.141 183.528 161.262 198.327 157.586 198.566C153.909 198.804 153.909 178.754 154.309 176.129C154.628 173.424 163.26 169.048 163.26 169.048L168.375 176.924Z" fill="#FDF5EB"/>
<path d="M157.586 172.548C157.985 173.742 158.065 175.015 157.985 175.97C157.905 177.72 157.106 179.55 155.747 180.664C155.268 180.982 154.788 181.3 154.229 181.459C154.229 178.913 154.309 176.924 154.389 176.208C154.469 175.094 155.907 173.742 157.586 172.548Z" fill="#FDCDD0"/>
<path d="M155.028 192.678C157.026 192.28 159.024 192.121 161.022 192.28C160.303 195.622 159.184 198.486 157.586 198.566C156.307 198.725 155.508 196.099 155.028 192.678C154.948 192.678 155.028 192.678 155.028 192.678Z" fill="#FDCDD0"/>
<path opacity="0.2" d="M159.264 171.355L161.262 178.516L154.788 191.962C155.268 195.781 156.147 198.725 157.585 198.645C161.262 198.407 162.141 183.608 162.86 182.096C163.58 180.584 168.375 177.004 168.375 177.004L163.26 169.127C163.26 169.048 161.342 170.002 159.264 171.355Z" fill="#CA666A"/>
<path d="M224.163 130.698C237.35 140.166 214.492 161.966 168.455 177.8L159.983 170.002C159.983 170.002 207.698 118.923 224.163 130.698Z" fill="#FF82A7"/>
<path opacity="0.2" d="M224.163 130.698C223.443 130.141 222.564 129.743 221.685 129.505C221.605 129.902 221.445 130.221 221.365 130.618C219.927 134.278 217.369 137.302 214.332 139.768C211.295 142.235 207.858 144.144 204.421 146.054C198.347 149.316 192.113 152.498 185.479 154.328C181.883 155.363 178.046 155.999 174.29 155.999C165.898 163.717 159.983 170.002 159.983 170.002L168.455 177.8C214.492 161.966 237.35 140.166 224.163 130.698Z" fill="#CA666A"/>
<path d="M268.361 22.7301C268.361 22.7301 264.125 25.4353 266.922 35.5399C268.361 40.7115 271.558 22.4119 271.558 22.4119L268.361 22.7301Z" fill="#002538"/>
<path d="M268.041 36.1764C268.041 36.1764 262.446 32.3573 261.327 37.6881C260.129 43.4963 268.201 41.905 268.201 41.905L268.041 36.1764Z" fill="#FFB2A5"/>
<path d="M289.301 57.6586L290.02 41.9846C290.02 41.9846 296.175 44.2124 296.814 39.1998C297.293 34.7443 292.418 34.2669 290.02 36.3356C290.02 36.3356 294.576 20.6615 280.909 19.2294C267.242 17.7177 266.762 36.3356 266.682 40.8707C266.443 48.827 272.117 52.7257 276.193 53.203L275.794 58.0564C275.794 58.0564 275.634 63.0689 279.95 63.2281C286.823 63.4667 289.301 57.6586 289.301 57.6586Z" fill="#FFB2A5"/>
<path d="M277.632 22.8098C276.593 22.1733 275.314 21.9346 274.116 21.9346C273.396 21.9346 272.597 22.0141 271.878 22.2528C270.039 24.2419 268.841 26.9471 268.041 29.6522C268.761 28.777 269.56 27.9814 270.519 27.3449C272.597 25.8332 275.394 25.0376 277.792 25.9128L279.79 25.5945C279.55 24.401 278.671 23.4463 277.632 22.8098Z" fill="#C76470"/>
<path d="M270.356 41.0086C271.459 40.6924 272.095 39.5461 271.778 38.4483C271.46 37.3505 270.308 36.7169 269.206 37.0331C268.103 37.3493 267.466 38.4957 267.784 39.5935C268.102 40.6913 269.253 41.3249 270.356 41.0086Z" fill="#FF9F99"/>
<path d="M292.897 37.529C292.258 37.6881 291.699 38.0064 291.299 38.5633C290.899 39.1203 290.819 39.8363 291.059 40.3933C291.379 41.1094 292.258 41.4276 293.057 41.3481C293.857 41.2685 294.496 40.7115 294.975 40.075C295.535 39.359 295.775 38.4042 295.055 37.6881C294.576 37.2107 293.457 37.3699 292.897 37.529Z" fill="#FF9F99"/>
<path d="M272.295 36.4881C273.084 36.3917 273.644 35.6772 273.547 34.8922C273.449 34.1073 272.731 33.549 271.943 33.6454C271.154 33.7418 270.594 34.4563 270.691 35.2413C270.788 36.0263 271.507 36.5845 272.295 36.4881Z" fill="#002538"/>
<path d="M279.088 36.7191C279.876 36.6227 280.437 35.9082 280.339 35.1232C280.242 34.3382 279.524 33.78 278.735 33.8764C277.946 33.9728 277.386 34.6873 277.483 35.4722C277.581 36.2572 278.299 36.8155 279.088 36.7191Z" fill="#002538"/>
<path d="M294.656 37.529C293.937 37.2108 293.057 37.2108 292.338 37.6086C291.619 38.0064 291.139 38.7225 291.059 39.5181" stroke="#4C2049" stroke-width="0.5722" stroke-miterlimit="10" stroke-linecap="round" stroke-linejoin="round"/>
<path d="M292.098 37.9268C292.418 38.3246 292.658 38.7224 292.978 39.1202" stroke="#4C2049" stroke-width="0.5722" stroke-miterlimit="10" stroke-linecap="round" stroke-linejoin="round"/>
<path d="M283.067 30.1296C281.708 29.2544 279.87 29.0953 278.351 29.8909" stroke="#002538" stroke-width="0.5722" stroke-miterlimit="10" stroke-linecap="round" stroke-linejoin="round"/>
<path d="M274.275 30.2888C273.156 29.1749 271.078 29.0953 269.879 30.1296" stroke="#002538" stroke-width="0.5722" stroke-miterlimit="10" stroke-linecap="round" stroke-linejoin="round"/>
<path d="M284.113 41.8828C285.215 41.5666 285.852 40.4202 285.534 39.3224C285.216 38.2246 284.065 37.591 282.962 37.9073C281.859 38.2235 281.223 39.3698 281.541 40.4676C281.858 41.5654 283.01 42.199 284.113 41.8828Z" fill="#FF9F99"/>
<path d="M275.634 34.7443L274.595 37.6086C274.595 37.6086 273.156 37.9268 273.716 39.1998" stroke="#002538" stroke-width="0.5722" stroke-miterlimit="10" stroke-linecap="round" stroke-linejoin="round"/>
<path d="M273.796 42.7802C275.474 43.0985 276.833 42.7802 277.552 41.189" stroke="#002538" stroke-width="0.5722" stroke-miterlimit="10" stroke-linecap="round" stroke-linejoin="round"/>
<path d="M276.194 53.1235L276.034 54.8739C283.227 55.5104 285.145 50.3387 285.145 50.3387C284.266 51.6913 280.909 53.76 276.194 53.1235Z" fill="#C76470"/>
<path d="M276.273 127.118L259.809 124.651C259.809 124.651 199.706 145.417 195.709 157.909C191.713 170.4 262.526 225.697 262.526 225.697C262.526 225.697 271.478 221.082 273.636 214.717L226.4 164.353L266.442 151.225L276.273 127.118Z" fill="#FEC92E"/>
<path opacity="0.2" d="M257.971 213.922L260.448 200.794L226.321 164.433L257.331 154.328L268.041 138.018L264.285 134.756C264.285 134.756 245.502 152.658 235.991 155.044C229.198 156.795 207.538 159.739 195.869 161.33C201.304 178.118 262.446 225.856 262.446 225.856C262.446 225.856 264.604 224.742 267.082 222.833L257.971 213.922Z" fill="#DE720A"/>
<path d="M302.329 131.016C301.929 136.347 300.97 143.428 295.375 148.679C289.381 154.328 255.253 188.939 255.253 188.939L237.03 245.27C237.03 245.27 226.48 247.179 219.847 240.655C219.847 240.655 236.151 184.563 238.309 179.471C240.467 174.378 276.433 127.118 276.433 127.118L302.329 131.016Z" fill="#FEC92E"/>
<path d="M294.576 72.537C294.576 72.537 295.775 69.1954 295.935 67.9223C296.094 66.6493 294.656 63.7055 294.976 62.4325C295.375 61.1594 298.173 61.4777 298.173 61.4777C298.173 61.4777 299.771 59.2499 300.65 59.4886C301.609 59.7273 301.21 60.6821 301.689 60.9207C302.169 61.1594 303.128 59.4886 303.767 60.7616C304.407 62.0346 304.407 62.3529 305.286 62.1938C306.085 62.0346 306.804 62.9098 306.964 64.5011C307.124 66.0924 308.163 64.6602 308.083 66.8085C308.003 68.9567 302.009 76.5152 302.009 76.5152L294.576 72.537Z" fill="#FFB2A5"/>
<path d="M235.032 98.7929C235.032 98.7929 267.002 122.025 275.074 120.196C283.147 118.366 304.886 76.356 304.886 76.356L293.377 71.6617L272.197 102.294L245.183 84.3919C244.224 84.3124 235.032 98.7929 235.032 98.7929Z" fill="white"/>
<path opacity="0.2" d="M265.324 117.649C269.48 119.559 273.076 120.752 275.075 120.275C279.47 119.241 287.862 106.431 294.576 94.8943C285.225 104.521 269.4 119.241 265.324 117.649Z" fill="#C2BED4"/>
<path opacity="0.2" d="M295.375 148.679C300.97 143.428 301.929 136.347 302.329 131.016L298.173 130.38L274.435 169.525C283.307 160.534 292.498 151.385 295.375 148.679Z" fill="#DE720A"/>
<path opacity="0.2" d="M301.29 90.2797L304.886 100.225L302.249 131.096L298.093 130.459L301.29 90.2797ZM316.076 124.89L311.76 117.65C313.198 121.309 314.477 124.412 314.957 125.288C316.395 127.993 344.209 150.191 344.209 150.191L347.566 147.168L316.076 124.89Z" fill="#D287FD"/>
<path d="M230.876 90.5184C229.038 92.5075 229.118 92.587 228.398 94.2579C227.679 95.9287 228.558 96.0083 227.439 97.52C226.24 98.9521 228.478 98.8726 227.439 100.464C226.4 102.055 226.32 103.806 227.279 104.601C228.239 105.397 229.597 106.67 229.917 105.874C230.237 105.079 228.958 101.976 228.958 101.976C228.958 101.976 230.077 103.567 230.876 103.408C231.675 103.249 229.677 98.0769 229.677 98.0769C229.677 98.0769 230.876 99.8273 231.356 98.7134C231.835 97.5996 230.556 93.7805 230.556 93.7805C230.556 93.7805 231.755 89.4841 230.876 90.5184Z" fill="#FFB2A5"/>
<path d="M292.578 29.4135C296.094 28.2996 298.972 25.1966 299.691 21.6163C298.812 22.0141 297.533 21.855 296.574 21.6163C297.373 20.7411 297.613 19.4681 297.533 18.2746C297.054 19.1498 295.855 19.3885 294.896 19.0702C293.936 18.752 293.217 18.0359 292.578 17.2403C291.938 16.4446 291.379 15.649 290.58 15.0125C289.541 14.1373 287.942 13.819 286.583 13.9782C287.782 13.0234 288.342 11.8299 288.342 10.3182C287.303 11.1934 285.864 11.273 284.505 11.1934C283.147 11.0343 281.788 10.7161 280.429 10.7956C278.431 11.0343 276.753 12.2278 275.953 14.0577C275.714 12.9438 275.874 11.8299 276.433 10.7956C275.554 11.273 274.834 11.9891 274.515 12.9438C274.195 13.8986 274.275 14.9329 274.675 15.8877C272.597 14.6942 269.879 14.5351 267.641 15.4103C266.203 15.9673 265.004 17.0016 264.684 18.4337C265.883 17.8768 267.402 17.7177 268.6 18.2746C267.481 18.4337 266.522 19.0702 265.883 19.9454C265.323 20.8206 265.084 21.855 264.844 22.8097C264.524 23.7645 264.125 24.7988 263.325 25.4353C262.526 26.0718 261.327 25.9923 260.688 25.1171C260.528 26.7083 262.047 28.1405 263.645 28.3792C265.244 28.6179 266.842 27.9018 268.281 27.0266C269.719 26.231 270.998 25.1966 272.597 24.7192C274.115 24.2419 276.033 24.3214 277.152 25.5149C276.833 27.1062 277.152 28.777 278.271 30.05C279.95 32.0391 282.907 32.6756 285.464 32.1187C288.022 31.8004 290.1 30.2887 292.578 29.4135Z" fill="#002538"/>
<path d="M294.816 27.504L292.498 35.1421C292.498 35.1421 290.819 35.6195 289.86 36.6538C288.981 37.6881 288.342 40.4728 287.542 40.5524C286.743 40.7115 287.303 37.3699 287.383 36.3355C287.383 35.3012 283.706 34.1078 283.786 29.8909C283.946 25.8331 294.816 27.504 294.816 27.504Z" fill="#002538"/>
<path opacity="0.2" d="M97.2856 154.999C92.8897 154.84 76.2654 161.444 78.5832 164.388C80.981 167.332 115.189 167.968 117.187 165.263C119.265 162.558 101.522 155.158 97.2856 154.999Z" fill="#0073CD"/>
<path d="M99.8431 127.47L97.1257 156.909H98.0049L102.401 127.55L99.8431 127.47Z" fill="#002538"/>
<path d="M88.6538 110.682L94.4084 128.425L107.756 129.698L114.869 113.149L88.6538 110.682Z" fill="#F9828A"/>
<path opacity="0.2" d="M93.8489 126.674L108.875 126.993L110.233 123.969L92.5701 122.696L93.8489 126.674Z" fill="#CA666A"/>
<path d="M114.869 113.149C111.432 114.422 107.756 115.058 103.999 114.979H103.28C102.96 114.979 102.641 114.979 102.321 114.899C102.081 114.899 101.841 114.899 101.602 114.819C101.522 114.819 101.442 114.819 101.362 114.819C100.563 114.74 99.6834 114.581 98.8841 114.422C98.6444 114.342 98.4046 114.342 98.1648 114.263C94.8879 113.546 91.611 112.353 88.6538 110.682C91.611 109.727 94.6481 109.171 97.6053 109.091C97.8451 109.091 98.0849 109.091 98.3247 109.091C99.3637 109.091 100.403 109.091 101.362 109.171H101.442C101.522 109.171 101.602 109.171 101.681 109.171C101.841 109.171 102.001 109.171 102.161 109.25C102.481 109.25 102.88 109.33 103.2 109.33C103.44 109.33 103.68 109.409 103.919 109.409C107.676 109.966 111.352 111.239 114.869 113.149Z" fill="#002538"/>
<path d="M114.309 122.458L88.2539 120.469L88.8134 123.333L90.7316 123.412L82.1797 163.751H83.2986L92.9695 123.571L109.754 124.447L113.91 163.751H114.789L112.151 124.606L113.67 124.685L114.309 122.458Z" fill="#FEC92E"/>
<path d="M114.549 16.6381C114.23 19.9797 112.871 23.0827 111.113 25.7879C108.075 30.6413 103.68 34.5399 100.403 39.3137C97.4454 43.6101 95.5273 48.5431 94.4882 53.7943C92.4102 64.8536 94.4882 76.1516 97.2057 87.2905C91.6909 76.4699 86.3359 65.2514 85.217 53.3169C84.0981 41.7802 87.4549 30.2434 94.0087 21.2528C97.1257 16.9563 101.202 12.5803 105.997 10.0343C108.955 8.44301 112.152 8.28388 114.07 11.8642C114.869 13.2168 114.629 15.2855 114.549 16.6381Z" fill="#00BD85"/>
<path d="M124.78 42.3372C122.462 39.3933 118.226 39.9503 115.348 41.2233C111.672 42.8941 109.034 46.0767 107.036 49.3388C104.239 53.7943 102.481 58.8864 101.442 64.1376C100.323 70.0253 99.923 76.1517 100.083 82.1985C100.083 83.4715 100.163 84.7446 100.243 86.0971C100.323 87.6089 100.403 89.2001 100.482 90.7118C100.642 93.8148 100.882 96.9178 101.042 100.021C101.042 100.419 101.122 100.816 101.122 101.214C101.282 103.442 101.362 105.59 101.362 107.818C101.362 108.216 101.362 108.693 101.362 109.171C101.362 111.08 101.362 112.99 101.282 114.82C101.362 114.82 101.442 114.82 101.522 114.82C101.522 114.581 101.522 114.422 101.522 114.183C101.522 114.183 101.522 114.183 101.522 114.104C101.601 112.433 101.601 110.762 101.601 109.091C101.601 107.341 101.522 105.59 101.442 103.84C101.122 97.1565 100.562 90.314 100.323 83.5511C100.323 72.5713 106.157 63.0237 115.348 57.6929C119.824 55.2265 130.055 49.0205 124.78 42.3372Z" fill="#002538"/>
<path d="M90.0923 45.5196C89.2931 51.0095 89.5329 56.9768 90.8916 63.7397C92.0904 70.1048 94.0885 76.4698 96.0867 82.5962C96.2465 83.2327 96.4863 83.8693 96.6461 84.5058C97.3654 86.7335 98.0848 89.0409 98.7242 91.3482C99.6033 94.2921 100.483 97.6338 101.122 101.214C101.282 102.089 101.442 102.965 101.601 103.919C101.841 105.67 102.081 107.42 102.241 109.25C102.401 111.16 102.481 113.069 102.401 114.899C102.161 114.899 101.921 114.899 101.681 114.819C101.681 114.581 101.681 114.422 101.681 114.183C101.681 114.183 101.681 114.183 101.681 114.103C101.681 112.433 101.681 110.762 101.522 109.091C101.522 108.614 101.442 108.216 101.442 107.738C100.802 101.771 99.3636 96.122 98.0848 91.4278C97.4454 89.1205 96.6461 86.7335 95.9268 84.4262C95.767 83.8693 95.6071 83.3123 95.3673 82.7554C94.8878 81.1641 94.3283 79.4933 93.8488 77.902C93.4491 76.5494 93.0495 75.1968 92.6499 73.8442C92.6499 73.8442 92.6499 73.8442 92.6499 73.7647C91.6908 70.5026 90.8116 67.1609 90.1722 63.8192C88.8935 56.9768 88.5738 50.9299 89.373 45.3605C90.3321 38.9158 92.7298 33.1872 96.4064 28.8112C96.4863 28.6521 96.7261 28.6521 96.8859 28.8112C97.0458 28.9704 97.0457 29.1295 96.9658 29.2886C93.3692 33.5851 90.9715 39.1545 90.0923 45.5196Z" fill="#002538"/>
<path d="M88.1742 82.4372C85.6166 78.459 82.4196 74.7991 80.1018 70.6618C78.1836 67.3201 75.0666 61.0346 77.784 57.6929C84.4177 49.5774 92.1704 72.2531 93.2893 75.9926C94.4882 80.1299 95.1276 84.2672 95.2075 88.4841C95.2874 91.5075 95.2075 94.4513 95.6871 97.3952C93.8488 92.0644 91.2912 87.1315 88.1742 82.4372Z" fill="#E2AFFF"/>
<path d="M98.8841 114.422C98.6443 114.342 98.4045 114.342 98.1648 114.263C98.0049 112.512 97.8451 110.762 97.6053 109.011C97.0458 104.715 96.2466 100.419 95.2076 96.2017C92.2504 84.108 87.2951 72.4918 80.5015 61.7507C80.4216 61.5915 80.4215 61.3528 80.5814 61.2733C80.7412 61.1937 80.981 61.2733 81.0609 61.4324C87.375 71.3779 92.1704 82.2781 95.2076 93.417C96.5663 98.509 97.6053 103.76 98.2447 108.932C98.5644 110.841 98.7242 112.671 98.8841 114.422Z" fill="#002538"/>
<path d="M131.094 66.9223C130.214 69.0705 129.015 71.0596 127.497 72.8895C124.46 76.4699 120.384 79.0159 116.627 81.9598C111.592 85.8584 106.717 91.1892 104.559 97.4747C104.798 91.1892 103.999 84.7445 105.518 78.6977C106.717 74.083 109.514 70.2639 113.031 67.161C116.547 64.058 121.583 60.5572 126.138 59.0455C134.29 56.2608 132.372 63.7397 131.094 66.9223Z" fill="#E2AFFF"/>
<path d="M117.826 71.8552C112.711 78.0611 108.874 85.4606 106.557 93.3373C105.038 98.509 104.159 103.999 103.999 109.489C103.919 111.319 103.999 113.149 104.079 115.058H103.36C103.28 113.149 103.2 111.319 103.28 109.409C103.44 105.272 103.919 101.135 104.878 97.1564C107.036 87.6883 111.272 78.7772 117.266 71.4574C117.346 71.2982 117.586 71.2982 117.746 71.4574C117.906 71.4574 117.906 71.696 117.826 71.8552Z" fill="#002538"/>
<path d="M153.034 276.048L152.714 247.007L-12.6496 186.778L-57.4072 201.577L-55.489 227.674L113.391 299.36L153.034 276.048Z" fill="#EDF6FF"/>
<path d="M95.2485 244.143L51.8495 244.621L-44.1396 201.577L-4.9767 194.098L95.2485 244.143Z" fill="#DBECFF"/>
<path d="M108.596 148.189L0.857834 111.829L-2.49899 112.624V125.912L-8.25355 131.799L-10.7312 202.372L95.2485 244.143L106.118 237.858L108.596 148.189Z" fill="#002538"/>
<path d="M-5.93579 132.197L93.5701 168.876L99.7243 163.227L-1.3801 127.582L-5.93579 132.197Z" fill="#0D3049"/>
<path d="M108.036 148.428L105.319 149.303L-1.38013 113.341L0.857758 112.625L108.036 148.428Z" fill="#0D3049"/>
<path opacity="0.2" d="M59.2825 178.503L83.8993 186.778L83.1 204.361L58.803 195.53L59.2825 178.503Z" fill="#002538"/>
<path opacity="0.2" d="M105.319 151.133L104.04 159.408L96.5272 168.876L95.8079 242.074L104.839 236.346L107.717 149.86L105.319 151.133Z" fill="#002538"/>
</g>
</g>
<defs>
<clipPath id="clip0">
<path d="M0 24C0 10.7452 10.7452 0 24 0H321C334.255 0 345 10.7452 345 24V200H0V24Z" fill="white"/>
</clipPath>
<clipPath id="clip1">
<rect width="465" height="299" fill="white" transform="translate(-65)"/>
</clipPath>
</defs>
</svg>
