<svg width="58" height="58" viewBox="0 0 58 58" fill="none" xmlns="http://www.w3.org/2000/svg">
<g filter="url(#filter0_b)">
<circle cx="29" cy="29" r="26" fill="white" fill-opacity="0.1"/>
</g>
<path d="M38.6 23.2C38.6 23.7523 38.1523 24.2 37.6 24.2H20.4C19.8477 24.2 19.4 23.7523 19.4 23.2V22.8C19.4 22.2477 19.8477 21.8 20.4 21.8H37.6C38.1523 21.8 38.6 22.2477 38.6 22.8V23.2ZM36.2 18C36.2 17.4477 35.7523 17 35.2 17H22.8C22.2477 17 21.8 17.4477 21.8 18V18.4C21.8 18.9523 22.2477 19.4 22.8 19.4H35.2C35.7523 19.4 36.2 18.9523 36.2 18.4V18ZM41 29V38.6C41 39.92 39.92 41 38.6 41H19.4C18.08 41 17 39.92 17 38.6V29C17 27.68 18.08 26.6 19.4 26.6H38.6C39.92 26.6 41 27.68 41 29ZM32.5082 34.5019C33.0652 34.1992 33.0658 33.3998 32.5091 33.0965L27.7828 30.5206C27.2497 30.2301 26.6 30.616 26.6 31.2231V36.3669C26.6 36.9735 27.2489 37.3595 27.7819 37.0698L32.5082 34.5019Z" fill="white"/>
<defs>
<filter id="filter0_b" x="-17" y="-17" width="92" height="92" filterUnits="userSpaceOnUse" color-interpolation-filters="sRGB">
<feFlood flood-opacity="0" result="BackgroundImageFix"/>
<feGaussianBlur in="BackgroundImage" stdDeviation="10"/>
<feComposite in2="SourceAlpha" operator="in" result="effect1_backgroundBlur"/>
<feBlend mode="normal" in="SourceGraphic" in2="effect1_backgroundBlur" result="shape"/>
</filter>
</defs>
</svg>
